<svg version="1.1" xmlns="http://www.w3.org/2000/svg" viewBox="0 0 100 81.23"><path d="M88.22 12.84C92.46 10.3 95.7 6.28 97.24 1.5C93.26 3.85 88.88 5.55 84.2 6.48C80.46 2.49 75.14 0 69.23 0C57.9 0 48.72 9.18 48.72 20.51C48.72 22.11 48.9 23.68 49.25 25.18C32.2 24.33 17.09 16.16 6.97 3.75C5.2 6.77 4.19 10.3 4.19 14.06C4.19 21.18 7.82 27.46 13.32 31.13C9.96 31.02 6.79 30.09 4.03 28.56C4.03 28.58 4.03 28.79 4.03 28.81C4.03 38.75 11.1 47.04 20.48 48.93C18.76 49.39 16.95 49.65 15.07 49.65C13.75 49.65 12.47 49.52 11.21 49.27C13.82 57.42 21.4 63.35 30.37 63.51C23.35 69.01 14.5 72.28 4.89 72.28C3.24 72.28 1.61 72.18 0 72C9.08 77.83 19.86 81.23 31.45 81.23C69.18 81.23 89.81 49.97 89.81 22.86C89.8 22.6 89.75 20.47 89.74 20.21C93.77 17.33 97.26 13.72 100 9.61C96.32 11.24 92.37 12.35 88.22 12.84Z" id="k4iC3VIX7"></path></svg>
