<svg version="1.1" xmlns="http://www.w3.org/2000/svg" viewBox="0 0 100 196.22"><path d="M63.7 196.18C50.38 196.18 37.11 196.14 23.79 196.22C21.92 196.22 21.41 195.71 21.41 193.85C21.45 162.85 21.45 131.81 21.45 100.82C21.45 100 21.45 99.18 21.45 98.13C14.21 98.13 7.16 98.13 0 98.13C0 87.07 0 76.21 0 65.03C0.74 65.03 1.44 65.03 2.1 65.03C7.94 65.03 13.78 64.99 19.62 65.07C21.1 65.07 21.49 64.64 21.49 63.2C21.41 54.52 21.41 45.79 21.49 37.11C21.53 31.04 22.5 25.12 25.31 19.63C29.32 11.88 35.67 6.85 43.69 3.74C50.23 1.17 57.12 0.23 64.05 0.12C75.35 -0.04 86.64 0.04 97.93 0C98.98 0 99.84 -0.04 99.84 1.44C99.8 12.15 99.8 22.86 99.8 33.57C99.8 33.68 99.76 33.8 99.61 34.31C98.94 34.31 98.2 34.31 97.46 34.31C90.46 34.31 83.45 34.27 76.44 34.31C72.39 34.31 69.12 35.94 67.05 39.49C66.43 40.54 66.04 41.9 66.04 43.15C65.92 49.77 66.04 56.39 65.96 63.01C65.96 64.56 66.43 64.99 67.95 64.99C77.68 64.91 87.42 64.95 97.15 64.95C97.93 64.95 98.67 64.95 100 64.95C98.63 76.09 97.31 86.99 95.95 98.01C85.82 98.01 75.97 98.01 65.92 98.01C65.92 130.76 65.92 163.32 65.92 196.06C64.95 196.1 64.33 196.18 63.7 196.18Z" id="cQ0eVpmDd"></svg>
