<svg version="1.1" xmlns="http://www.w3.org/2000/svg" viewBox="0 0 100 125.06"><path d="M100 42.68C99.97 27.2 92.56 21.72 91.13 19.15C93.23 7.42 90.79 2.09 89.65 0.26C85.45 -1.23 75.04 4.11 69.35 7.86C60.08 5.15 40.48 5.41 33.13 8.57C19.57 -1.14 12.4 0.34 12.4 0.34C12.4 0.34 7.76 8.65 11.17 20.81C6.71 26.5 3.39 30.52 3.39 41.18C3.39 43.74 3.54 46.15 3.81 48.47C7.66 68.67 23.66 77.39 39.39 78.89C37.02 80.69 34.18 84.09 33.79 88.04C30.81 89.96 24.83 90.59 20.18 89.13C13.67 87.07 11.17 74.17 1.41 76.01C-0.7 76.4 -0.28 77.8 1.55 78.98C4.52 80.91 7.32 83.31 9.48 88.44C11.14 92.38 14.63 99.41 25.65 99.41C30.02 99.41 33.09 98.89 33.09 98.89C33.09 98.89 33.17 108.93 33.17 112.84C33.17 117.34 27.09 118.61 27.09 120.77C27.09 121.63 29.11 121.71 30.72 121.71C33.92 121.71 40.57 119.05 40.57 114.37C40.57 110.65 40.63 98.15 40.63 95.96C40.63 91.17 43.19 89.65 43.19 89.65C43.19 89.65 43.5 115.19 42.57 118.61C41.48 122.64 39.5 122.06 39.5 123.86C39.5 126.53 47.5 124.51 50.15 118.66C52.2 114.09 51.28 89.04 51.28 89.04C51.49 89.04 53.2 89 53.42 89C53.42 89 53.44 100.47 53.37 105.71C53.29 111.13 52.73 117.99 55.96 121.23C58.07 123.36 64.55 127.1 64.55 123.68C64.55 121.7 60.01 120.07 60.01 114.71C60.01 112.24 60.01 92.48 60.01 90.01C62.77 90.01 63.34 98.13 63.34 98.13C63.44 99.63 64.24 111.7 64.33 113.21C64.33 113.21 63.67 118.71 70.28 121.01C72.61 121.83 77.6 122.05 77.84 120.68C78.07 119.3 71.83 117.27 71.77 113.01C71.74 110.42 71.89 108.9 71.89 97.61C71.89 86.33 70.37 82.16 65.09 78.83C80.4 77.26 96.31 70.42 99.17 52.44C99.63 49.51 99.92 46.29 100 42.68Z" id="akamPhtPn"></path></svg>
