<svg xmlns="http://www.w3.org/2000/svg" viewBox="0 0 91.127 46.411">
  <g stroke-width=".529">
    <path d="M14.949 19.315h-3.72L3.984 7.433v11.882H.265V1.257h3.72l7.256 11.906V1.257h3.708zM21.77 19.315h-3.596V5.895h3.596zM17.963 2.423q0-.807.533-1.327.546-.521 1.476-.521.918 0 1.463.52.546.521.546 1.328 0 .818-.558 1.339-.546.52-1.451.52t-1.464-.52q-.545-.52-.545-1.34zM30.315 16.673q.993 0 1.613-.546t.645-1.45h3.36q-.012 1.363-.743 2.504-.732 1.129-2.01 1.762-1.265.62-2.803.62-2.877 0-4.539-1.824-1.662-1.835-1.662-5.06v-.235q0-3.1 1.65-4.949 1.65-1.848 4.527-1.848 2.517 0 4.03 1.439 1.526 1.426 1.55 3.807h-3.36q-.025-1.041-.645-1.686-.62-.658-1.637-.658-1.253 0-1.898.918-.632.905-.632 2.952v.372q0 2.071.632 2.977.633.905 1.922.905zM42.854 13.932l-1.29 1.29v4.093H37.98V.265h3.584v10.554l.695-.893 3.435-4.03h4.304l-4.85 5.593 5.272 7.826h-4.118z"/>
    <path d="M9.66 45.992H7.885l-5.836-8.45v8.45H.265V34.754h1.784l5.836 8.46v-8.46H9.66zM19.094 43.3h-5.016l-1.061 2.692h-1.823l4.62-11.238h1.602l4.553 11.238h-1.814zm-4.437-1.456h3.868l-1.92-4.91zM31.943 34.754v7.524q0 1.756-1.206 2.817-1.206 1.051-3.222 1.051-2.025 0-3.212-1.012-1.186-1.023-1.215-2.779v-7.6h1.765v7.523q0 1.167.685 1.794.694.618 1.977.618 1.264 0 1.949-.608.694-.617.694-1.804v-7.524zM36.689 34.754l3.772 8.788 3.752-8.788h2.325v11.238h-1.775v-3.868l.183-5.142-3.84 9.01h-1.311l-3.83-8.971.184 5.103v3.868h-1.775V34.754zM56.145 40.918h-5.131v3.617h5.97v1.457H49.23V34.754h7.698v1.476h-5.913v3.222h5.131zM68.27 45.992h-1.774l-5.836-8.45v8.45h-1.785V34.754h1.785l5.836 8.46v-8.46h1.775zM74.155 40.986l-1.418 1.37v3.636h-1.785V34.754h1.785v5.354l1.254-1.39 3.83-3.964h2.19l-4.621 5.007 4.948 6.231h-2.17zM90.862 40.706q0 2.518-1.33 3.984-1.332 1.456-3.57 1.456-2.209 0-3.57-1.475-1.35-1.476-1.35-4.013v-.598q0-2.49 1.341-3.975 1.35-1.485 3.56-1.485 2.247 0 3.569 1.466 1.331 1.466 1.35 3.926zm-1.765-.666q0-1.91-.83-2.923-.83-1.012-2.324-1.012-1.447 0-2.296 1.032-.84 1.032-.84 2.932v.637q0 1.88.85 2.923.848 1.032 2.305 1.032 1.505 0 2.315-1.013.82-1.022.82-2.942z"/>
  </g>
</svg>
