<svg xmlns="http://www.w3.org/2000/svg" xmlns:xlink="http://www.w3.org/1999/xlink" width="540" height="340"><defs><path d="M0 0h540v340H0V0z" id="a"/><linearGradient id="b" gradientUnits="userSpaceOnUse" x1="270" x2="270" y2="340"><stop offset="0%" stop-color="#8defdb"/><stop offset="100%" stop-color="#d2f6df"/></linearGradient><path d="M361.45 71.8l.52.02.47.01.48.03.48.02.49.04.49.03.5.05.49.05.5.06.5.06.5.07.5.08.5.09.49.09.5.11.49.11.5.12.49.13.48.15.48.15.48.16.47.17.46.19.46.19.45.21.44.22.44.23.43.25.41.26.41.27.4.29.39.3.37.31.36.33.35.35.34.36.33.38.3.39.3.41.28.43.26.44.43.8.39.81.35.82.31.83.27.84.24.84.21.86.17.87.14.87.11.88.08.89.05.89.03.89v.91l-.03.9-.05.91-.08.91-.09.91-.12.92-.14.91-.15.92-.17.92-.19.91-.21.92-.21.91-.24.91-.24.91-.25.9-.26.9-.28.9-.27.89-.29.88-.29.88-.29.87-.3.86-.3.85-.3.85-.3.83-.3.83-.29.82.33-.05.34-.04.33-.04.34-.04.33-.05.34-.04.34-.04.33-.04.34-.05.33-.04.34-.04.33-.05.34-.04.34-.04.33-.04.34-.05.33-.04.34-.04.33-.05.34-.04.34-.04.33-.05.34-.04.33-.04.34-.05.33-.04.34-.04.34-.05.33-.04.34-.04.33-.05.34-.04.33-.05.34-.04.33-.04.34-.05.34-.04.33-.05.34-.04.33-.04.07-.01.07-.01.08-.01.09-.01h.09l.1-.01h.1l.11-.01h.12l.12-.01h.12l.12.01h.25l.13.01.13.01.13.01.12.02.13.02.12.02.12.02.12.03.12.03.11.04.1.04.1.04.1.05.08.05.08.06.08.06.06.07.06.08.05.07.04.09.02.09.02.09v.22l-.02.11-.04.12v.02l-.01.02-.01.02v.02l-.01.02-.01.02v.02l-.01.02-.01.02-.01.02-.01.02-.01.01v.02l-.01.02-.01.02-.01.02-.01.02-.01.01-.01.02-.01.02-.01.02-.01.01-.01.02-.01.02-.02.02-.01.01-.01.02-.01.02-.01.02-.01.01-.02.02-.01.02-.01.01-.01.02-.01.02-.02.01-.01.02-.01.02-.02.01-.01.02.44-.02.43-.01.44-.02.43-.01.44-.01.44-.02.43-.01.44-.01.44-.01.43-.01h.44l.44-.01.43-.01h.87l.44-.01h1.31l.44.01h.43l.44.01h.43l.44.01.43.01.44.01.43.02.44.01.43.02.44.01.43.02.44.02.43.03.43.02.44.03.43.02.43.03.44.03.43.04.43.03.1-.21.11-.2.1-.21.12-.2.11-.2.12-.19.12-.2.12-.19.12-.19.13-.19.13-.18.14-.18.13-.18.14-.18.14-.18.14-.17.15-.17.15-.17.15-.17.15-.17.15-.16.16-.17.16-.16.16-.16.16-.16.17-.15.16-.16.17-.15.17-.15.17-.16.17-.15.18-.14.17-.15.18-.15.18-.14.18-.15.18-.14.18-.14.19-.15.18-.14.11-.08.12-.08.11-.07.13-.07.12-.08.13-.06.14-.07.13-.06.14-.06.14-.06.15-.05.15-.05.15-.05.15-.04.15-.04.15-.04.16-.03.16-.04.15-.02.16-.03.16-.02.16-.01.16-.01.15-.01.16-.01h.16l.15.01.16.01.15.01.15.01.15.02.15.03.15.03.14.03.14.04.14.05.14.05.13.05.12.06.13.06.13.07.11.08.11.08.1.08.08.08.08.09.06.08.06.09.04.09.04.09.03.09.02.09.01.1.01.09-.01.1-.01.09-.01.1-.03.09-.02.1-.04.09-.04.1-.04.1-.05.09-.06.09-.05.1-.06.09-.07.09-.07.09-.07.09-.07.08-.08.09-.08.08-.08.08-.08.08-.08.08-.08.07-.09.07-.08.07-.08.07-.08.06-.03.02-.03.02-.02.02-.07.06-.04.02-.02.02-.02.01-.01.01-.01.01-.03.02-.02.02-.03.02-.02.02-.01.02-.02.02-.02.01-.02.01-.02.03-.06.04-.01.01-.04.04-.04.03-.03.03-.04.03-.01.01-.03.03-.03.02-.02.02-.02.02-.02.02-.03.02-.01.01-.02.02-.02.02-.02.01-.01.01-.03.03-.01.01-.01.01-.03.03-.03.03-.03.03-.04.03-.03.03-.03.03-.03.03-.03.03-.04.03-.03.03-.03.03-.03.03-.03.03-.04.03-.03.03-.03.03-.03.03-.03.03-.03.03-.03.04-.03.03-.03.03-.04.03-.03.03-.03.03-.03.03-.03.04-.03.03-.03.03-.03.03-.03.03-.03.04-.03.03-.03.03-.03.03-.03.04-.02.03-.03.03-.03.04-.03.03-.03.03-.03.05-.04.04-.03.05-.04.05-.04.05-.04.06-.04.06-.04.06-.04.06-.04.06-.04.07-.04.07-.05.07-.04.07-.04.08-.04.07-.05.08-.04.07-.05.08-.04.08-.04.08-.05.08-.04.08-.04.08-.04.09-.05.08-.04.08-.04.08-.04.08-.04.09-.04.08-.04.08-.03.08-.04.08-.04.07-.03.08-.04.08-.03.07-.03.08-.03.07.21.04.21.03.2.04.21.04.21.04.2.04.21.04.21.04.2.05.21.04.21.04.2.05.21.04.2.05.21.05.2.04.21.05.2.05.21.05.2.05.21.05.2.05.21.05.2.06.21.05.2.05.2.06.21.05.2.06.2.06.21.06.2.05.2.06.21.06.2.06.2.06.2.07.2.06.21.06.2.07.01-.01.02-.01.01-.01h.01l.01-.01h.01l.01-.01h.01l.01-.01H426.11l.01.01h.03l.01.01h.01l.02.01.01.01h.01l.02.01.01.01.01.01.02.01.01.01.01.01.02.01.01.01.01.01.02.01.01.02.02.01.01.01.01.02.02.01.08.03.08.03.09.03.08.02.08.03.08.03.08.03.09.02.08.03.08.03.08.03.09.03.08.02.08.03.08.03.08.03.09.03.08.03.08.03.08.03.08.03.08.03.09.03.08.03.08.03.08.03.08.03.08.03.09.03.08.03.08.03.08.03.08.03.08.03.09.04.08.03.08.03.08.03.08.03.08.04.14.06.14.06.13.06.12.07.12.06.11.07.1.07.09.07.09.07.09.07.08.08.07.07.06.08.06.07.05.08.05.08.05.08.03.08.03.08.03.08.02.09.02.08.01.08v.09l.01.08-.01.08-.01.09-.01.08-.02.09-.02.08-.02.09-.03.08-.04.09-.03.08-.05.09-.04.08-.05.08-.05.09-.06.08-.06.08.04.01.04.01h.04l.04.01.04.01.04.01.03.01h.04l.04.01.03.01.03.01.04.02.03.01.03.01.03.01.03.01.03.02.03.01.03.02.03.01.02.02.03.01.02.02.02.02.03.01.02.02.02.02.02.02.02.02.02.02.01.02.02.02.01.02.02.02.01.03.01.02.02.02.01.03v.02l.01.03.02.05.01.06.02.05.01.05.02.06.01.05.02.05.02.05.01.06.02.05.01.05.02.06.01.05.02.05.02.05.01.06.02.05.01.05.02.06.02.05.01.05.02.05.02.06.01.05.02.05.02.05.01.06.02.05.02.05.01.05.02.05.02.06.02.05.01.05.02.05.02.06.02.05.01.05.02.05.02.05.04.03.03.03.04.03.04.02.03.03.04.03.04.03.03.02.04.03.04.03.03.03.04.03.04.03.03.03.04.02.03.03.04.03.04.03.03.03.04.03.03.03.04.03.03.03.04.03.03.03.04.03.03.03.04.03.03.03.04.03.03.04.04.03.03.03.03.03.04.03.03.03.04.04.03.03.03.03.04.03.14-.06.15-.07.15-.06.16-.07.15-.06.15-.06.16-.06.16-.05.16-.06.16-.05.16-.05.16-.05.16-.05.16-.04.15-.05.16-.03.16-.04.16-.04.15-.03.15-.03.16-.02.14-.02.15-.02.15-.02.14-.01.14-.01h.39l.13.01.12.01.12.01.11.02.11.03.1.03.1.03.09.04.09.04.08.05.07.06.56.46.52.48.5.51.46.52.44.54.41.56.38.57.36.59.33.6.3.62.29.64.25.64.24.66.22.66.19.68.17.69.16.69.13.7.12.71.1.71.09.72.06.72.06.73.04.73.03.73.01.73v.73l-.01.73-.01.72-.03.73-.04.72-.04.72-.05.71-.06.7-.07.7-.06.69-.08.68-.07.68-.08.66-.08.65-.01.07-.01.07-.01.08-.01.07-.01.07-.01.07-.01.07-.01.07-.01.08-.01.07-.01.07-.01.07-.01.07-.01.08-.01.07-.01.07-.01.07-.01.07-.01.07-.01.08-.01.07-.01.07-.01.07-.01.07-.01.07-.01.08-.01.07-.01.07-.02.07-.01.07-.01.07-.01.08-.01.07-.01.07-.01.07-.02.14-.01.08-.03.14.1.36.1.35.09.36.09.36.09.36.08.36.08.36.08.36.07.36.07.37.07.36.07.36.06.37.06.36.05.37.05.36.05.37.05.36.05.37.04.37.04.37.03.36.04.37.03.37.02.37.03.37.02.37.02.37.02.37.02.37.01.38.01.37.01.37.01.37v1.5l-.01.37v.38l.34-.18.35-.18.34-.18.34-.18.34-.19.35-.18.34-.18.34-.19.34-.18.34-.19.34-.18.34-.19.34-.19.34-.19.34-.19.33-.19.34-.2.34-.19.33-.19.34-.2.33-.2.34-.2.33-.2.33-.2.33-.2.33-.2.33-.21.33-.2.33-.21.33-.21.32-.21.33-.22.32-.21.33-.21.32-.22.32-.22.33-.22.32-.22.32-.23.31-.22.24-.15.24-.14.26-.12.26-.11.28-.09.28-.07.28-.06.29-.05.3-.03.29-.02.29-.01h.3l.29.02.28.03.28.05.28.05.26.06.26.08.24.09.23.09.22.11.2.12.19.12.16.14.15.14.13.16.1.16.08.17.06.17.02.18v.19l-.03.2-.06.2-.09.21-.12.22-.17.22-.19.22-.24.23-.27.24-.32.23-.45.32-.45.31-.45.32-.45.3-.46.31-.46.3-.46.3-.46.3-.46.29-.46.29-.47.29-.46.29-.47.28-.47.28-.47.28-.47.28-.48.28-.47.27-.47.27-.48.27-.48.27-.48.27-.48.26-.48.26-.48.27-.48.26-.48.25-.49.26-.48.26-.49.25-.48.26-.49.25-.48.25-.49.25-.49.25-.49.25-.49.25-.49.24-.48.25-.49.25-.05.47-.05.46-.05.47-.05.47-.06.47-.05.46-.06.47-.06.47-.07.47-.06.47-.07.47-.06.47-.07.46-.07.47-.07.47-.07.47-.08.47-.07.47-.08.47-.07.47-.08.47-.08.47-.08.47-.08.46-.08.47-.08.47-.08.47-.09.47-.08.47-.08.47-.09.46-.08.47-.08.47-.09.47-.08.47-.08.46-.09.47-.08.47-.09.46-.08.47-.03.19-.02.19-.03.19-.03.19-.03.19-.03.19-.03.19-.03.19-.03.2-.02.19-.03.19-.03.19-.03.19-.03.19-.03.19-.04.19-.03.19-.03.19-.03.19-.03.19-.03.19-.03.19-.04.19-.03.19-.03.19-.03.19-.04.19-.03.19-.03.19-.04.19-.03.19-.03.19-.04.19-.03.19-.04.19-.03.19-.04.19-.03.19-.04.19-.03.19-.04.27-.04.26-.04.27-.04.26-.03.27-.04.26-.04.26-.03.27-.04.26-.03.26-.03.27-.04.26-.03.26-.03.26-.03.27-.03.26-.03.26-.03.26-.03.26-.03.26-.02.26-.03.26-.03.26-.02.26-.03.26-.02.26-.02.26-.02.26-.02.26-.02.26-.02.25-.02.26-.02.26-.01.26-.02.25-.02.26-.01.26-.01.25-.01.26-.01.25-.01.08-.01.08-.01.08-.01.07-.01.08-.02.07-.02.08-.02.07-.03.07-.02.07-.03.07-.03.07-.04.07-.03.07-.04.06-.04.07-.04.07-.05.06-.04.06-.05.07-.05.06-.05.06-.06.06-.05.06-.06.05-.06.06-.06.06-.06.05-.07.06-.06.05-.07.05-.07.05-.06.05-.08.05-.07.05-.07.05-.07.04-.08.05-.08.04-.08.05-.16.62-.17.63-.17.62-.18.63-.17.62-.18.63-.18.62-.18.62-.19.62-.18.62-.19.62-.19.62-.2.62-.19.62-.2.62-.2.61-.2.62-.21.61-.21.62-.21.61-.21.61-.21.62-.22.61-.22.61-.22.61-.22.6-.23.61-.23.61-.23.6-.23.61-.23.6-.24.61-.24.6-.24.6-.24.6-.25.6-.25.6-.25.59-.25.6-.26.59v.02l-.01.01-.01.01v.01l-.01.01v.01l-.02.03v.01l-.01.01v.01h-.01.05l.03.01h.18l.03.01H430.92l.02.01h.1l.02.01h.05l.02.01h.07l.02.01h.05l.02.01h.03l.02.01h.05l.02.01h.02l.03.01h.02l.11.03.11.02.11.04.1.04.1.04.1.04.09.05.09.05.08.06.08.05.07.06.07.07.07.06.06.07.05.07.05.08.05.07.04.08.03.08.03.08.02.08.02.08.01.08.01.09V241.47l-.02.08-.02.09-.02.09-.03.08-.04.09-.05.09-.05.08-.06.09-.06.08-.08.09-.08.08-.09.08-.09.08-.11.08-1.35.93-1.38.87-1.4.78-1.42.72-1.43.65-1.45.59-1.47.52-1.48.46-1.5.41-1.5.35-1.52.3-1.54.26-1.54.2-1.55.17-1.57.12-1.57.08-1.58.05-1.58.02-1.59-.02-1.6-.04-1.6-.06-1.6-.09-1.61-.11-1.61-.12-1.61-.14-1.61-.15-1.61-.16-1.6-.16-1.61-.17-1.6-.17-1.6-.16-1.59-.16-1.59-.16-1.58-.14-1.57-.13-1.56-.12-1.56-.09-1.55-.08-1.53-.05-1.53-.03h-.12l-.06-.01h-.07l-.06-.01-.07-.01h-.07l-.06-.01-.07-.01-.07-.02-.07-.01-.07-.01-.06-.02-.07-.02-.07-.01-.07-.02-.07-.02-.06-.02-.07-.03-.06-.02-.07-.02-.06-.03-.07-.03-.06-.03-.06-.03-.06-.03-.06-.03-.05-.03-.06-.04-.05-.03-.05-.04-.05-.04-.05-.04-.05-.04-.04-.04-.04-.05-.04-.04-.04-.05-.03-.04-.03-.05-.82-.04-.82-.04-.82-.04-.82-.05-.82-.04-.81-.04-.82-.05-.82-.04-.82-.05-.82-.05-.82-.04-.81-.05-.82-.05-.82-.05-.82-.05-.82-.05-.81-.05-.82-.05-.82-.05-.82-.06-.82-.05-.81-.05-.82-.05-.82-.06-.82-.05-.81-.06-.82-.05-.82-.05-.82-.06-.82-.05-.81-.06-.82-.05-.82-.06-.81-.05-.82-.06-.82-.05-.82-.05-.81-.06-.82-.05-.82-.06h-.06l-.07-.01h-.06l-.06-.01-.07-.01-.06-.01-.07-.01-.06-.02-.07-.01-.06-.01-.06-.02-.07-.02-.06-.02-.06-.02-.07-.02-.06-.02-.06-.02-.06-.02-.06-.03-.07-.02-.06-.03-.05-.03-.06-.03-.06-.03-.06-.03-.05-.03-.06-.03-.05-.04-.05-.03-.05-.04-.05-.03-.05-.04-.05-.04-.05-.04-.04-.04-.05-.04-.04-.05-.04-.04-.04-.04-.04-.05-.16-.01-.17-.02-.17-.01-.17-.02-.17-.01-.17-.02-.16-.01-.17-.02-.17-.01-.17-.02-.17-.01-.16-.02-.17-.01-.17-.02-.17-.01-.16-.02-.17-.01-.51-.05-.16-.01-.17-.02-.17-.01-.17-.02-.17-.01-.16-.02-.17-.01-.17-.02-.17-.01-.17-.02-.16-.01-.17-.02-.17-.01-.17-.02-.17-.01-.16-.02-.17-.01-.17-.02-.17-.01-.16-.02h-.02l-.05.01h-.18l-.04.01H325.94l-.05-.01h-.16l-.04-.01h-.13l-.04-.01h-.04l-.03-.01h-.04l-.04-.01h-.04l-.04-.01h-.04l-.03-.01h-.04l-.04-.01-.03-.01h-.04l-.03-.01-.04-.01h-.03l-.04-.01-.03-.01-.04-.01-.03-.01-.15-.01-.16-.01-.15-.01-.15-.02-.16-.01-.15-.01-.15-.01-.16-.01-.15-.02-.15-.01-.16-.01-.15-.01-.15-.01-.16-.01-.15-.01-.15-.02-.16-.01-.15-.01-.15-.01-.15-.01-.16-.01-.15-.01-.15-.01-.16-.01-.15-.01-.15-.01-.16-.01-.15-.01-.15-.01-.16-.01-.15-.01-.15-.01h-.16l-.15-.01-.16-.01-.15-.01-.15-.01-.16-.01h-.15l-.15-.01h-.03l-.03-.01h-.14l-.02-.01h-.09l-.03-.01h-.05l-.03-.01h-.06l-.01-.01h-.06l-.02-.01-.08.01H317.82l-.07-.01h-.16l-.07-.01-.08-.01h-.07l-.08-.01-.07-.01-.08-.02-.07-.01-.07-.01-.08-.02-.07-.02-.07-.02-.07-.02-.08-.02-.07-.02-.07-.03-.07-.02-.07-.03-.07-.03-.06-.03-.07-.03-.07-.04-.07-.03-.06-.04-.07-.04-.06-.04-.07-.04-.06-.04-.06-.05-.07-.05-.06-.04-.06-.06-.06-.05-.06-.05-.02-.02-.02-.03-.03-.02-.02-.02-.02-.02-.03-.03-.02-.02-.02-.02-.03-.02-.02-.02-.02-.03-.02-.02-.03-.02-.02-.02-.02-.03-.03-.02-.02-.02-.02-.03-.02-.02-.03-.02-.02-.02-.02-.03-.02-.02-.03-.02-.02-.02-.02-.03-.02-.02-.02-.02-.03-.03-.02-.02-.02-.02-.02-.03-.02-.02-.03-.02-.02-.03-.02-.02-.02-.02-.02-.03-.02-.02-.02-.02-1.62-.01H306.34l-1.62.01-1.62.01h-1.61l-1.62.01-1.62.01-1.62.02-1.61.01-1.62.02-1.62.02-1.62.01-1.61.02-1.62.03-1.62.02-1.62.02-1.61.03-1.62.02-1.62.03-1.61.03-1.62.03-1.62.03-1.62.03-1.61.03-1.62.04-1.62.03-1.61.04-1.62.03-1.62.04-1.61.03-1.62.04-1.62.04-1.61.04-1.62.04-1.62.03-1.61.04-1.62.04-1.03.07-1.03.06-1.03.06-1.03.06-1.02.06-1.03.06-1.03.06-1.03.06-1.03.07-1.03.06-1.03.06-1.02.06-1.03.06-1.03.06-1.03.06-1.03.06-1.03.06-1.03.06-1.02.06-1.03.06-1.03.06-1.03.06-1.03.06-1.03.06-1.03.05-1.02.06-1.03.06-1.03.05-1.03.06-1.03.06-1.03.05-1.03.06-1.02.05-1.03.05-1.03.06-1.03.05-1.03.05-1.03.05-1.03.05-1.02.05-.69.13-.69.13-.69.12-.68.12-.69.12-.69.11-.69.12-.69.11-.69.1-.69.11-.69.1-.69.09-.69.09-.69.09-.69.09-.69.08-.69.07-.7.07-.69.07-.69.06-.69.06-.7.05-.69.05-.7.04-.69.04-.7.03-.69.02-.7.02-.7.01-.69.01h-.7l-.7-.01-.7-.01-.7-.02-.69-.03-.7-.03-.71-.04-.7-.05-.7-.06-.7-.06-.07-.01h-.07l-.07-.01-.07-.01-.07-.01-.06-.02-.07-.01-.06-.01-.07-.02-.06-.01-.07-.02-.06-.02-.06-.01-.06-.02-.06-.02-.06-.02-.06-.03-.05-.02-.06-.02-.05-.03-.06-.02-.05-.03-.05-.02-.05-.03-.05-.03-.05-.03-.05-.03-.05-.03-.04-.03-.05-.03-.04-.04-.04-.03-.04-.03-.04-.04-.04-.03-.04-.04-.03-.04-.04-.03-.03-.04-.04-.04-.8.01-.8.02-.8.01-.81.01-.8.02-.8.01-.8.01h-.81l-.8.01-.8.01-.8.01h-.81l-.8.01h-6.42l-.81-.01h-.8l-.8-.01-.81-.01-.8-.01-.8-.01-.8-.01-.81-.01-.8-.01-.8-.02-.81-.01-.8-.02-.8-.02-.81-.02-.8-.02-.8-.02-.81-.02-.8-.02-.8-.03-.19.34-.18.33-.18.34-.18.34-.17.34-.18.34-.17.34-.17.34-.16.34-.17.34-.16.35-.16.34-.16.35-.15.35-.16.35-.15.35-.16.35-.15.35-.14.35-.15.35-.15.35-.14.36-.15.35-.14.35-.14.36-.14.35-.14.36-.14.36-.13.35-.14.36-.13.36-.14.36-.13.36-.14.35-.13.36-.13.36-.13.36-.14.36-.13.36-.13.36-.07.17-.11.17-.12.16-.15.15-.16.15-.19.15-.21.14-.22.13-.23.12-.25.12-.26.11-.27.11-.28.1-.29.09-.29.09-.3.07-.3.07-.3.06-.31.06-.3.05-.29.03-.3.03-.28.02-.28.02h-.27l-.26-.01-.25-.01-.24-.03-.22-.03-.2-.04-.19-.06-.16-.06-.15-.07-.12-.09-.1-.09-.08-.1-.05-.12-.02-.13.01-.13.04-.15.14-.37.13-.37.14-.37.13-.37.14-.37.14-.36.14-.37.13-.37.14-.36.15-.37.14-.36.14-.37.14-.36.15-.37.14-.36.15-.36.14-.36.15-.36.15-.36.15-.36.16-.36.15-.36.16-.35.15-.36.16-.35.16-.36.17-.35.16-.36.16-.35.17-.35.17-.35.17-.35.17-.35.18-.34.18-.35.18-.35.18-.34.18-.35.19-.34.19-.34-.84.07-.83.07-.84.07-.84.08-.84.07-.83.07-.84.06-.84.07-.84.06-.83.05-.84.05-.83.05-.83.04-.84.03-.82.03-.83.02h-1.65l-.81-.01-.82-.02-.81-.03-.81-.04-.8-.06-.8-.06-.79-.09-.79-.09-.79-.11-.77-.13-.78-.14-.76-.16-.77-.18-.75-.19-.75-.21-.74-.24-.73-.25-.73-.27-.72-.3-.71-.31-.7-.34-.69-.36.02.05.02.04.01.05.02.05.02.05.01.05.01.05.01.05v.05l.01.05v.05l.01.05-.01.05v.11l-.01.05v.05l-.01.06-.02.05-.01.05-.01.06-.02.05-.02.06-.02.05-.02.05-.03.06-.02.05-.03.06-.03.05-.04.06-.03.05-.04.05-.03.06-.05.05-.04.06-.04.05-.05.05-.05.06-.05.05-.05.05-.17.18-.18.17-.18.17-.18.17-.18.17-.18.17-.18.17-.18.17-.18.16-.18.17-.18.17-.19.16-.18.17-.18.16-.19.17-.18.16-.18.17-.19.16-.18.17-.19.16-.18.17-.19.16-.18.17-.18.16-.19.16-.18.17-.18.17-.19.16-.18.17-.18.16-.18.17-.18.17-.19.17-.18.16-.18.17-.17.17-.18.17-.18.18-.18.17-.17.17-.11.1-.11.1-.11.09-.12.1-.12.09-.12.08-.13.08-.13.08-.13.08-.14.08-.13.07-.14.07-.15.06-.14.06-.15.06-.14.06-.15.05-.15.05-.16.04-.15.04-.15.04-.16.04-.15.03-.16.03-.16.02-.15.02-.16.02-.15.01-.16.01-.16.01H94.4l-.15-.01-.15-.01-.15-.02-.14-.02-.15-.02-.14-.03-.14-.03-.13-.03-.12-.04-.12-.04-.11-.04-.1-.05-.1-.05-.1-.05-.09-.06-.08-.06-.08-.06-.08-.07-.06-.07-.07-.07-.05-.07-.06-.07-.04-.08-.04-.08-.04-.08-.03-.08-.02-.09-.02-.09-.02-.08v-.09l-.01-.09.01-.09.01-.09.01-.1.02-.09.03-.09.03-.1.04-.09.04-.1.05-.09.05-.1.06-.09.07-.09.07-.1.08-.09.08-.09.09-.09.18-.18.17-.17.18-.17.18-.17.18-.17.18-.17.18-.17.18-.17.18-.16.18-.17.18-.17.19-.16.18-.17.18-.16.19-.17.18-.16.19-.17.18-.16.18-.17.19-.16.18-.17.19-.16.18-.17.18-.16.19-.16.18-.17.18-.16.19-.17.18-.17.18-.16.18-.17.19-.17.18-.17.18-.16.18-.17.18-.17.17-.17.18-.18.18-.17.17-.17.1-.1.11-.09.1-.09.11-.08.11-.09.12-.08.11-.08.12-.07.13-.08.12-.07.13-.07.13-.06.13-.07.13-.06.14-.05.14-.06.14-.05.14-.05.14-.04.14-.04.14-.04.15-.04.14-.03.15-.04.14-.02.15-.03.14-.02.15-.02.15-.01.14-.02.15-.01H104.47l.14.01.14.01.14.01.14.02.13.02-.2-.14-.21-.14-.2-.14-.21-.14-.2-.15-.2-.15-.2-.15-.2-.16-.2-.15-.2-.16-.19-.16-.2-.17-.19-.17-.2-.17-.19-.17-.19-.18-.19-.17-.19-.19-.19-.18-.19-.19-.19-.19-.18-.19-.19-.2-.18-.19-.18-.21-.18-.2-.18-.21-.18-.21-.18-.21-.18-.22-.17-.22-.18-.22-.17-.22-.17-.23-.17-.23-.17-.24-.17-.23-.17-.24-.17-.25-.16-.25-.1-.16-.09-.16-.07-.16-.05-.15-.05-.16-.03-.16-.02-.15-.01-.16v-.15l.02-.15.02-.15.04-.14.05-.15.05-.14.07-.14.07-.13.09-.14.09-.13.1-.13.11-.12.11-.13.12-.12.13-.11.14-.11.14-.11.15-.11.15-.1.16-.1.16-.09.16-.09.17-.08.18-.08.18-.08.17-.07.19-.06.18-.07.19-.05.18-.05.19-.05.19-.04-.03-.23-.03-.24-.03-.23-.02-.24-.02-.24-.02-.25-.02-.24-.01-.25-.01-.24v-.25l-.01-.25v-.5l.01-.25v-.25l.01-.26.01-.25.02-.25.01-.26.02-.25.02-.26.03-.25.02-.26.03-.25.03-.26.03-.25.04-.26.03-.25.04-.25.04-.26.04-.25.04-.25.05-.25.05-.25.04-.25.05-.25.06-.25.05-.25.05-.24.06-.25-.01-.09-.01-.09-.02-.08-.01-.09-.01-.09-.01-.09-.01-.09-.01-.09-.02-.09-.01-.09-.01-.09-.01-.09-.01-.09-.01-.09-.02-.09-.01-.09-.01-.09-.01-.09-.01-.09-.02-.09-.01-.08-.01-.09-.01-.09-.01-.09-.02-.09-.01-.09-.01-.09-.01-.09-.01-.09-.02-.09-.01-.09-.01-.09-.01-.09-.01-.09-.02-.09-.01-.09-.01-.08-.01-.09-.02-.09-.01-.09-.1-.57-.11-.57-.1-.57-.1-.57-.11-.57-.1-.57-.1-.57-.11-.57-.1-.57-.1-.57-.1-.57-.1-.57-.1-.58-.1-.57-.1-.57-.09-.57-.1-.57-.09-.57-.1-.57-.09-.57-.09-.57-.08-.58-.09-.57-.08-.57-.08-.57-.08-.58-.08-.57-.08-.57-.07-.58-.07-.57-.07-.58-.07-.57-.06-.58-.06-.57-.06-.58-.05-.58-.05-.57-.05-.58-.04-.58-.05-.58-.09-.71-.09-.7-.08-.71-.09-.71-.08-.71-.09-.71-.07-.71-.08-.71-.08-.71-.07-.71-.07-.71-.06-.71-.07-.71-.06-.71-.06-.71-.05-.71-.05-.71-.05-.71-.04-.71-.05-.71-.03-.71-.04-.72-.03-.71-.02-.71-.03-.71-.02-.72-.01-.71-.01-.71-.01-.72v-1.43l.01-.71.01-.72.02-.71.02-.72.03-.72.03-.71.04-.72.04-.72.05-.72v-.07l.01-.07.01-.07.01-.06.01-.07.02-.07.01-.07.02-.06.02-.07.02-.06.03-.07.02-.06.02-.06.03-.06.03-.06.03-.06.03-.06.03-.06.04-.06.03-.06.04-.06.04-.05.04-.06.04-.05.04-.06.05-.05.04-.05.05-.06.04-.05.05-.05.05-.05.05-.05.05-.04.05-.05.06-.05.05-.05.06-.04.05-.05.06-.04.06-.04v-.31l.01-.3.01-.3.01-.3v-.31l.01-.3.01-.3.02-.3.01-.31.01-.3.01-.3.02-.3.01-.31.02-.3.01-.3.02-.3.02-.31.02-.3.02-.3.02-.3.02-.31.02-.3.03-.3.02-.31.03-.3.02-.3.03-.3.03-.31.03-.3.03-.3.03-.31.03-.3.03-.3.04-.3.03-.31.04-.3.03-.3.04-.31.04-.3.04-.3.01-.08.02-.07.01-.08.02-.07.03-.08.02-.07.03-.07.03-.07.03-.07.04-.07.03-.07.04-.07.05-.07.04-.07.05-.06.05-.07.05-.06.05-.06.05-.06.06-.07.06-.06.06-.05.06-.06.06-.06.07-.06.07-.05.07-.06.07-.05.07-.05.07-.05.08-.06.07-.05.08-.04.08-.05.08-.05.08-.04.08-.05.09-.04.08-.04.09-.04V147.3l-.01-.07V147.01l-.01-.07V146.64l-.01-.07v-.8l.01-.07V145.34l.01-.08v-.14l.01-.07V144.9l.01-.07V144.68l.01-.07v-.07l-.01-.02-.02-.01-.02-.02-.01-.02-.02-.01-.02-.02-.01-.02-.02-.01-.01-.02-.02-.02-.01-.01-.02-.02-.01-.02-.02-.02-.01-.01-.01-.02-.02-.02-.01-.02-.01-.02-.02-.02-.01-.02-.01-.02-.01-.02-.02-.02-.01-.02-.01-.02-.01-.02-.01-.02-.01-.02-.01-.02-.01-.02-.01-.02-.01-.03-.01-.02v-.02l-.01-.02-.01-.03-.01-.02v-.02l-.01-.03-.08-.3-.09-.31-.07-.31-.08-.32-.07-.31-.07-.32-.07-.32-.06-.32-.06-.32-.06-.32-.06-.32-.05-.33-.05-.32-.04-.33-.04-.32-.04-.33-.03-.33-.03-.33-.03-.32-.02-.33-.02-.33-.02-.33-.01-.33v-.33l-.01-.33v-.32l.01-.33.01-.33.01-.32.02-.33.02-.32.03-.32.03-.32.03-.32.04-.32.05-.32.04-.31.06-.32.06-.31.06-.31-.02.01h-.01l-.02.01-.03.02-.01.01-.03.01-.03.01-.03.02-.03.01-.01.01h-.01l-.03.02-.03.01-.02.01-.02.01-.02.01h-.01l-.03.02h-.02l-.01.01h-.02v.01h-.02l-.01.01-.12.04-.11.05-.12.04-.12.04-.13.04-.13.05-.12.04-.14.04-.13.04-.13.03-.14.04-.13.03-.14.04-.14.03-.14.03-.14.02-.15.03-.14.02-.14.02-.14.01-.14.02-.15.01h-.14l-.14.01h-.28l-.14-.01-.13-.01-.14-.02-.14-.02-.13-.02-.13-.03-.13-.03-.13-.04-.12-.04-.12-.05-.12-.06-.12-.06-.12-.06-.11-.07-.37-.25-.37-.24-.37-.25-.36-.24-.37-.25-.37-.24-.37-.24-.37-.25-.37-.24-.37-.24-.37-.25-.38-.24-.37-.24-.37-.24-.37-.24-.38-.23-.37-.24-.37-.24-.38-.23-.37-.24-.38-.23-.38-.23-.37-.23-.38-.23-.38-.23-.38-.23-.38-.22-.38-.22-.39-.23-.38-.22-.39-.22-.38-.21-.39-.22-.38-.21-.39-.22-.39-.21-.39-.21-.4-.2-.39-.21-.39-.2-.2-.11-.16-.12-.13-.13-.09-.12-.06-.14-.02-.13v-.14l.03-.14.06-.14.08-.14.11-.15.13-.14.16-.14.17-.14.19-.14.21-.14.22-.14.23-.13.25-.13.26-.12.27-.12.27-.12.28-.11.29-.1.29-.1.29-.09.29-.08.29-.07.28-.06.29-.06.27-.04.27-.04.26-.02.25-.01h.24l.23.01.21.03.19.04.18.05.16.07.4.2.39.21.4.2.4.21.39.21.39.22.39.21.39.22.39.21.39.22.39.22.39.22.38.23.39.22.38.23.39.22.38.23.38.23.38.23.38.23.38.24.38.23.38.24.38.23.38.24.37.24.38.23.38.24.37.24.38.25.37.24.38.24.37.24.37.25.38.24.37.25.37.24.37.25.38.24.37.25.09-.21.09-.2.1-.21.1-.2.1-.2.1-.2.11-.2.11-.19.11-.19.12-.19.12-.19.13-.19.12-.18.13-.19.14-.18.13-.17.14-.18.15-.17.14-.17.15-.17.16-.16.16-.17.16-.16.16-.15.17-.16.17-.15.17-.15.18-.15.18-.14.19-.14.19-.14.19-.13.2-.13.2-.13.2-.13.21-.12.21-.12.21-.12.22-.11.23-.11-.02-.12V120.9l.01-.12.02-.13.03-.12.03-.12.03-.12.05-.13.05-.12.05-.12.07-.12.06-.12.08-.12.08-.11.09-.12.09-.11.1-.11.1-.11.11-.11.11-.1.12-.1.13-.1.13-.1.13-.09.14-.08.14-.08.15-.08.16-.08.15-.06.17-.07.16-.06.17-.05.18-.05.17-.04.19-.03.18-.03.19-.03.2-.01.19-.01.9-.02.9-.02h1.8l.9.01.9.02.89.02.9.03.9.03.89.04.9.04.89.05.89.06.9.05.89.07.89.06.9.07.89.07.89.07.9.08.89.07.89.08.89.08.89.08.9.08.89.08.89.08.89.08.9.07.89.08.89.07.9.08.89.07.9.06.89.07.9.06.89.06.9.05.89.05.9.04.42.02.41.02.41.02.42.01.41.02.42.01.41.02.42.01.41.01.41.01.42.01.41.01.42.01.41.01.42.01.42.01h.41l.42.01.41.01h.83l.42.01h1.66l.42.01h.41l.42-.01h1.67l.41-.01h.84l.41-.01h.42l.41-.01.42-.01.06-.03.06-.03.06-.03.06-.03.05-.03.06-.02.06-.03.06-.03.06-.03.06-.03.06-.03.06-.03.06-.03.06-.03.05-.03.06-.02.06-.03.06-.03.06-.03.06-.03.06-.02.06-.03.06-.03.06-.03.06-.02.06-.03.06-.03.06-.03.06-.02.06-.03.06-.03.06-.02.06-.03.06-.02.06-.03.06-.03.06-.02.07-.03.06-.02.06-.03.05-.02.05-.02.06-.02.05-.02.06-.02.06-.01.06-.02.06-.02.06-.02.06-.01.06-.02.07-.01.06-.02.07-.01.06-.02.07-.01.07-.01.07-.01.07-.01.07-.01.07-.01.07-.01.07-.01.07-.01.08-.01.07-.01h.07l.08-.01h.07l.07-.01H168.22l.08-.01h.52l-.2-.42-.2-.43-.2-.44-.19-.44-.18-.45-.18-.44-.18-.46-.16-.45-.17-.46-.16-.46-.15-.46-.15-.46-.14-.47-.14-.46-.14-.46-.13-.47-.12-.46-.12-.46-.12-.46-.11-.45-.11-.46-.1-.45-.1-.45-.09-.44-.09-.44-.09-.44-.08-.43-.08-.42-.07-.42-.07-.41-.07-.41-.06-.4-.06-.39-.06-.38-.05-.38-.05-.36-.05-.36-.04-.34-.04-.34-.03-.33-.04-.37-.03-.36-.03-.37-.03-.37-.02-.37-.02-.37-.01-.37-.01-.36v-.73l.01-.37.02-.36.02-.37.02-.36.04-.36.03-.36.05-.35.05-.36.06-.35.07-.36.07-.35.08-.34.09-.35.1-.34.11-.35.11-.33.13-.34.13-.33.14-.33.15-.33.16-.33.17-.32.18-.32.19-.31.2-.31.21-.31.22-.31.23-.3.24-.29.26-.3.28-.31.29-.3.3-.3.3-.29.3-.28.31-.27.32-.27.32-.27.32-.25.33-.25.33-.25.34-.23.34-.24.35-.22.35-.22.35-.21.36-.21.36-.2.37-.19.36-.19.38-.18.37-.18.38-.17.38-.17.38-.16.38-.15.39-.15.39-.14.39-.14.4-.13.39-.13.4-.12.4-.12.4-.11.4-.11.41-.1.4-.1.41-.09.4-.09.41-.08.89-.17.9-.14.9-.12.9-.1.9-.08.9-.06.9-.03.9-.02.9.01.89.03.9.05.89.08.89.1.89.12.88.14.87.16.87.19.86.21.86.23.85.26.84.28.83.3.82.32.81.35.8.37.79.39.78.42.77.44.75.46.74.49.73.51.71.54.69.55.68.59.67.6.64.63.63.66.61.67.59.71.58.72.28.38.28.37.28.38.27.39.27.38.27.39.26.39.26.39.26.39.25.39.26.4.24.4.25.4.24.4.24.41.24.4.23.41.23.41.23.41.22.42.22.41.22.42.22.42.21.42.21.42.2.42.21.43.2.42.2.43.19.43.19.43.19.43.19.44.18.43.18.44.18.44.18.43.17.44.17.45.17.44.17-.13.18-.12.18-.11.19-.11.19-.1.2-.09.2-.09.2-.08.21-.08.21-.07.21-.06.21-.05.21-.05.22-.04.21-.03.21-.03.21-.01.21-.01.21-.01.2.01.2.01.2.03.19.03.19.04.18.05.17.05.17.07.16.07.15.09.15.09.13.1.13.12.12.12.11.13.09.14.09.15.07.16.06.18.05.18.04.19.02.18.03.18.03.18.03.18.03.18.03.18.03.18.03.18.04.18.03.18.04.17.03.18.04.18.04.17.04.18.04.18.04.17.04.18.05.17.04.18.04.17.05.18.05.17.04.18.05.17.05.17.05.18.05.17.06.17.05.17.05.17.06.18.05.17.06.17.06.17.06.17.05.17.06.17.07.17.06.17.11-.02.12-.02.12-.02.12-.01.11-.02.12-.02.12-.02.12-.02.11-.01.12-.02.12-.02.12-.02.11-.02.12-.02.12-.01.12-.02.11-.02.12-.02.12-.02.12-.02.11-.01.12-.02.12-.02.11-.02.12-.02.12-.02.12-.02.11-.02.12-.02.12-.01.12-.02.11-.02.12-.02.12-.02.11-.02.12-.02.12-.02.12-.02.11-.02.12-.02-.02-.1-.01-.1-.02-.1-.02-.1-.01-.11-.02-.1-.01-.1-.02-.1-.02-.1-.01-.11-.02-.1-.02-.1-.01-.1-.02-.1-.01-.11-.02-.1-.01-.1-.02-.1-.01-.1-.02-.11-.01-.1-.02-.1-.01-.1-.02-.1-.01-.11-.02-.1-.01-.1-.02-.1-.01-.11-.02-.1-.01-.1-.01-.1-.02-.11-.01-.1-.01-.1-.02-.1-.01-.11-.01-.1-.01-.1-.02-.1-.01-.14V110l.01-.13.03-.13.03-.13.04-.13.05-.12.06-.13.07-.12.08-.12.09-.12.09-.11.1-.11.11-.11.12-.11.12-.1.13-.1.13-.1.14-.1.15-.09.15-.09.15-.08.16-.09.16-.08.17-.07.17-.08.17-.07.17-.06.18-.07.18-.06.18-.05.18-.05.18-.05.19-.04.18-.04.18-.04.19-.03.18-.03.18-.02.18-.02.05-.04.06-.04.06-.04.05-.03.06-.04.05-.04.06-.03.06-.04.06-.03.06-.03.06-.04.06-.03.06-.03.06-.03.06-.03.06-.03.06-.03.06-.03.06-.03.06-.02.06-.03.07-.03.06-.02.06-.03.07-.03.06-.02.06-.02.07-.03.06-.02.06-.02.07-.02.06-.03.07-.02.06-.02.06-.02.07-.02.06-.02.07-.01.06-.02.07-.02h.01l.01-.01h.03l.01-.01h.02l.03-.01.03-.01h.02l-.05-.13-.05-.14-.04-.13-.05-.13-.04-.14-.04-.13-.04-.13-.05-.14-.04-.13-.04-.14-.04-.13-.04-.14-.04-.13-.03-.14-.04-.13-.04-.14-.04-.14-.03-.13-.04-.14-.03-.14-.04-.13-.03-.14-.04-.13-.03-.14-.04-.14-.03-.14-.04-.13-.03-.14-.03-.14-.04-.13-.03-.14-.03-.14-.04-.14-.03-.13-.03-.14-.04-.14-.03-.13-.03-.14-.04-.14-.03-.14-.06-.28-.02-.28.01-.28.04-.26.06-.26.09-.25.12-.24.14-.23.16-.22.18-.22.21-.2.21-.19.24-.18.24-.16.27-.16.27-.14.28-.13.29-.11.29-.11.31-.08.3-.08.31-.06.31-.04.3-.03.31-.01.3.01.29.02.29.04.28.06.27.07.25.1.25.11.23.13.21.15.19.17.18.2.16.21.13.23.11.26.08.28.05.18.05.19.04.18.05.19.04.18.05.19.04.18.05.19.04.18.05.19.04.18.05.19.04.18.05.19.05.18.05.18.05.19.05.18.05.18.05.19.05.18.05.18.06.18.05.18.06.19.06.18.05.18.07.18.06.18.06.17.06.18.07.18.07.18.07.18.07.17.07.18.08.17.08.18.08.17.08.17v.02l.01.01.01.01v.01l.01.01v.02l.01.01v.01l.01.01v.03l.01.01v.01l.01.01v.03l.01.01v.01l.01.01v.03l.01.01v.03l.01.02v.02l.01.01v.04l.01.02v.04l.01.01v.02l.18-.07.19-.08.19-.06.19-.07.19-.05.2-.05.2-.05.2-.04.2-.03.21-.03.2-.02.2-.02h.2l.2-.01.2.01.19.01.2.02.19.02.18.03.19.04.17.05.18.05.17.06.16.06.15.08.15.08.15.09.13.1.13.1.12.12.11.12.1.13.09.14.08.14.07.16.06.16.05.17.03.18.03.19.01.2v.28l.01.28.02.28.01.28.02.28.02.28.03.28.02.28.03.28.04.28.03.28.04.27.04.28.04.28.04.27.05.28.04.27.05.28.05.27.06.27.05.28.06.27.06.27.06.28.06.27.07.27.06.27.07.27.07.27.07.27.07.27.08.27.07.27.08.27.07.27.08.27.08.27.08.27.08.27.08.27.07.01h.04l.03.01.07.01.04.01.07.01.03.01.07.01.07.01.07.01.07.01.04.01.07.01.03.01.07.01.07.01.07.01.04.01.07.01.07.01.11.02.14.02-.06-.13-.04-.13-.04-.13-.02-.14-.02-.14-.01-.14.01-.14.01-.14.01-.14.03-.14.04-.15.04-.14.05-.14.06-.14.07-.14.07-.14.08-.13.09-.14.1-.13.11-.13.11-.12.12-.12.12-.12.13-.12.14-.11.15-.1.15-.1.16-.09.16-.09.17-.08.18-.08.18-.07.19-.06.19-.06.2-.04.21-.04.21-.04.21-.02.22-.01.23-.01h.14l.07.01h.13l.07.01h.13l.06.01.06.01h.07l.06.01.06.01.06.01h.06l.06.01.05.01.06.01.06.02.05.01.06.01.05.01.05.02.05.01.06.01.05.02.05.01.05.02.04.02.05.01.05.02.05.02.04.01.05.02.04.02.04.02.05.02.04.02.04.02.04.02V113.23l.01-.07v-.06l.01-.07.01-.06.01-.06.01-.06.01-.06.02-.07.01-.06.02-.06.02-.05.02-.06.02-.06.02-.06.02-.05.03-.06.02-.06.03-.05.03-.05.03-.06.03-.05.03-.05.04-.06.03-.05.04-.05.03-.05.04-.05.04-.05.04-.04.04-.05.04-.05.04-.04.05-.05.04-.04.05-.05.04-.04.05-.05.05-.04-.17.08-.17.07-.17.07-.17.07-.18.06-.18.05-.18.05-.18.04-.19.04-.18.03-.19.03-.18.02-.19.02-.18.01h-.37l-.18-.01-.17-.01-.18-.03-.17-.02-.17-.04-.17-.04-.17-.04-.16-.06-.15-.06-.15-.07-.15-.07-.14-.08-.14-.09-.13-.1-.12-.1-.12-.11-.11-.12-.11-.13-.09-.13-.09-.14-.08-.15-.08-.16-.06-.16-.06-.18-.08-.3-.09-.31-.09-.3-.08-.3-.09-.31-.08-.3-.08-.3-.09-.31-.08-.3-.08-.31-.08-.3-.08-.31-.08-.3-.08-.3-.08-.31-.08-.3-.07-.31-.08-.31-.07-.3-.08-.31-.07-.3-.07-.31-.07-.31-.07-.3-.06-.31-.07-.31-.06-.31-.07-.3-.06-.31-.06-.31-.06-.31-.05-.31-.06-.31-.05-.31-.05-.31-.05-.31-.05-.32-.05-.31-.05-.31-.04-.31-.02-.31v-.29l.04-.29.06-.28.09-.27.11-.26.14-.25.16-.24.18-.23.2-.21.21-.21.23-.2.25-.18.26-.17.27-.15.27-.15.29-.13.3-.11.29-.11.31-.08.3-.07.31-.06.3-.04.3-.02.3-.01.29.01.28.03.28.04.27.07.25.08.24.1.23.12.21.14.19.16.17.18.16.2.13.22.1.25.09.26.05.29.04.31.05.32.04.31.05.31.05.31.06.31.05.31.05.31.06.31.06.31.06.31.06.31.06.31.07.31.06.3.07.31.07.31.07.31.07.3.07.31.07.3.08.31.07.31.08.3.08.31.08.3.07.31.08.3.08.3.09.31.08.3.08.31.08.3.09.3.08.31.09.3.08.31.09.3.08.3.09.31.02.09.02.08.02.09.02.09.01.09.01.08v.09l.01.08v.09l-.01.08v.08l-.01.08-.01.09-.01.08-.02.07-.02.08-.02.08-.02.08-.03.08-.03.07-.03.08-.03.07-.04.07-.03.07-.04.08-.04.07-.05.07-.04.06-.05.07-.05.07-.05.06-.05.07-.06.06-.06.07-.05.06-.06.06-.07.06-.06.06-.06.05-.07.06.18-.08.19-.08.2-.07.19-.07.2-.06.2-.05.21-.05.2-.04.21-.03.21-.02.2-.02.21-.01.21-.01.2.01.2.01.21.02.19.02.2.04.19.04.19.05.18.05.18.07.17.07.16.08.16.09.16.1.14.1.14.12.13.12.12.13.11.14.1.15.09.15.08.17.07.17.06.18.05.2.03.2.02.21.01.22v4.38H276.4l.02-.01h.15l.02-.01H277.05l-.04-.38-.03-.38-.04-.38-.03-.38-.03-.39-.03-.38-.03-.38-.03-.38-.02-.38-.03-.38-.02-.39-.02-.38-.02-.38-.02-.38-.02-.38-.01-.39-.02-.38-.01-.38-.01-.38-.01-.39-.01-.38-.01-.38-.01-.38-.01-.39-.01-.38v-.38l-.01-.39v-.38l-.01-.38v-1.15l-.01-.39V101.91l.01-.23.05-.22.07-.21.09-.21.13-.2.14-.2.16-.19.19-.17.2-.18.22-.16.24-.16.24-.15.26-.14.28-.13.28-.12.28-.11.3-.11.3-.09.3-.08.3-.08.3-.06.3-.05.3-.05.3-.03.28-.02.28-.01.28.01.26.01.24.03.24.03.22.06.2.06.19.08.16.09.15.1.12.12.09.13.07.14.05.16.01.17V101.15l.01.28V103.12l.01.28V104.24l.01.28V105.09l.01.28v.28l.01.28v.28l.01.28.01.28v.28l.01.28.01.28.01.29.01.28.01.28.01.28.01.28.01.28.01.28.02.28.01.28.01.28.02.28.02.28.04-.01h.04l.04-.01.04-.01h.05l.04-.01h.04l.04-.01h.04l.05-.01h.04l.04-.01h.04l.04-.01h.05l.04-.01h.08l.05-.01h.08l.04-.01h.13l.04-.01h.61l.03.01h.12l.04.01h.08l.04.01h.05l.04.01.05.01h.05l.04.01.05.01.05.01.05.01.05.01.05.01.05.02.05.01.04.01.05.02.04.02.05.02.04.02.04.02.04.02.03.02.04.02.03.03.02.03.03.03.02.03.02.03.01.03.01.04.01.03V112.1l-.01.04v.04l-.01.05-.01.03-.01.04-.01.04-.02.04-.01.04-.02.03-.02.04-.01.03-.02.03-.03.04-.02.03-.02.03-.03.03-.02.03-.03.03-.02.03-.03.03-.03.03-.03.03-.03.02-.03.03-.03.03-.03.02-.04.03-.03.02-.03.03-.04.02-.03.03-.03.02-.04.02-.03.03-.04.02-.03.02-.03.02-.04.03-.04.02-.05.03-.04.03-.05.03-.05.02-.04.03-.05.03-.05.02-.04.03-.05.03-.05.02-.04.02-.05.03-.05.02-.05.03-.05.02-.05.02-.04.03-.05.02-.05.02-.05.02-.05.03-.05.02-.05.02-.05.02-.05.02-.05.02-.05.02-.05.02-.05.02-.05.02-.05.02-.05.02-.05.02-.05.01-.05.02-.05.02-.05.02-.05.02-.06.01.02.13.01.13.01.13.01.13.02.12.01.13.01.13.02.13.01.13.01.13.02.12.01.13.02.13.01.13.01.13.02.13.02.12.01.13.02.13.01.13.02.13.02.12.01.13.02.13.02.13.01.13.02.13.02.12.02.13.02.13.02.13.02.12.02.13.02.13.02.13.02.13.02.12.02.13.02.13.02.13v.02l.01.01v.11l.01.01v.13l-.01.02v.09l-.01.02v.01l.15-.02.14-.03.15-.02.14-.02.14-.02.14-.01.14-.01.14-.01.14-.01.13-.01h.4l.13.01h.12l.12.01.12.01.12.02.11.01.11.02.11.03.1.02.1.03.09.03.09.04.09.03.08.04.08.04.07.05.06.05.07.05.05.06.05.05.05.06.04.07.03.07.03.07.02.07.01.08.01.08 1.18.15H291.43l.09.01H292.68v-1.34l-.02.01h-.05l-.07.01h-.07l-.04.01h-.14l-.03.01H291.68l-.06-.01h-.11l-.06-.01h-.06l-.05-.01-.06-.01h-.06l-.06-.01-.05-.01-.06-.01-.05-.01-.06-.02-.05-.01-.06-.01-.05-.02-.06-.02-.05-.01-.05-.02-.05-.02-.05-.02-.05-.03-.05-.02-.05-.03-.05-.03-.04-.02-.04-.03-.05-.04-.04-.03-.03-.03-.03-.03-.03-.03-.03-.03-.02-.03-.02-.03-.02-.04-.02-.03-.01-.03-.02-.04-.01-.03-.01-.04-.01-.03v-.04l-.01-.03V118.39l.01-.03v-.04l.01-.03.01-.04.01-.04.01-.03.01-.04.01-.03.02-.04.01-.03.02-.04.02-.03.02-.03.02-.04.02-.03.02-.03.03-.03.02-.03.03-.03.02-.03.03-.03.01-.01.01-.01.01-.01v-.01h.01l.01-.01.01-.02.01-.01.01-.01.01-.02.03-.04.02-.02.01-.02v-.01l.01-.02v-.02h.01v-.02l.01-.02v-.02l.01-.01v-.03l.01-.03.01-.02v-.04l.01-.02v-.06l.01-.02v-.02l.01-.02v-.01l.01-.02v-.02l.01-.02v-.02l.01-.02.01-.01v-.02l.01-.02.01-.02.01-.02v-.01l.01-.02.01-.02.01-.02.01-.01.01-.02.01-.02.01-.01.01-.02.02-.02.01-.01.01-.02.01-.02.02-.01.01-.02.01-.01.02-.02.01-.01.02-.02.01-.02.02-.01.02-.03.03-.02.03-.03.03-.02.04-.04.05-.05.01-.01.05-.04.04-.03.12-.11.04-.04.04-.04.04-.03.03-.03.03-.02.03-.02.04-.02.03-.03.03-.02.03-.02.03-.02.04-.02.03-.02.03-.02.04-.03.03-.02.03-.02.03-.02.04-.02.03-.02.04-.01.03-.02.03-.02.04-.02.03-.02.04-.02.03-.02.03-.01.04-.02.03-.02.04-.02.03-.02.04-.01.03-.02.04-.02.03-.01.04-.02.03-.02.04-.01.04-.02.03-.01.04-.02.03-.02v-4.48l.02-.17.04-.17.07-.15.1-.16.12-.15.14-.14.17-.14.18-.14.21-.13.22-.12.23-.12.25-.12.26-.1.27-.11.28-.09.29-.09.29-.09.3-.07.3-.08.3-.06.31-.06.3-.05.3-.05.29-.04.29-.03.28-.02.27-.02.26-.01h.25l.23.01.22.01.21.02.18.03.17.04.14.04.12.06.1.06.07.07.04.08.02.09v2.74l.04.01.04.01h.04l.04.01.04.01h.04l.04.01.04.01.04.01.04.01.04.01.03.01.04.01.04.01.03.01.04.01.04.01.03.01.04.02.03.01.03.01.04.01.03.02.03.01.03.02.03.01.03.02.03.01.03.02.03.01.03.02.03.02.03.01.02.02.03.02.03.02.02.02.02.01.03.02.02.02h.01v-.02l.01-.02.01-.02.01-.02.01-.01.02-.07.02-.03v-.01l.01-.02.01-.02.01-.02v-.01l.01-.01.01-.01.01-.03.02-.03.02-.03.02-.03.02-.03.02-.03.02-.03.02-.02.03-.03.02-.03.03-.02.03-.03.03-.03.02-.02.03-.03.03-.02.04-.03.03-.02.03-.02.03-.03.04-.02.03-.02.03-.03.04-.02.03-.02.04-.02.03-.02.04-.02.04-.02.03-.02.04-.02.03-.02.04-.02.04-.02.03-.02.04-.02.04-.02.03-.01.04-.02.03-.02.08-.26.07-.26.07-.26.07-.26.08-.27.07-.26.07-.26.08-.26.07-.26.08-.26.07-.26.08-.26.08-.26.07-.26.08-.26.08-.26.07-.26.08-.26.08-.26.08-.26.08-.26.08-.26.08-.26.08-.26.08-.26.09-.26.08-.25.08-.26.09-.26.08-.26.09-.26.08-.25.09-.26.09-.26.08-.26.09-.25.09-.26.09-.26.09-.25.09-.26.08-.17.1-.17.12-.17.15-.16.17-.15.19-.15.2-.14.22-.13.24-.13.25-.12.26-.12.27-.1.28-.1.29-.1.29-.08.3-.08.3-.07.31-.07.3-.05.3-.05.3-.03.29-.03.29-.02.28-.02h.27l.26.01.25.02.24.02.22.04.2.05.19.05.16.07.15.08.12.09.1.1.08.11.04.12.02.13-.01.14-.04.16-.17.48-.16.48-.17.48-.16.48-.16.49-.16.48-.16.48-.15.49-.15.48-.16.48-.15.49-.14.49-.15.48-.14.49-.15.49-.14.48-.14.49-.14.49-.14.49-.13.49-.14.49-.13.49-.13.49-.14.49-.13.49-.13.49-.13.49-.13.49-.12.49-.13.49-.13.5-.12.49-.13.49-.12.49-.13.49-.12.5-.13.49-.12.49-.12.5-.13.49v.03l-.01.03-.01.03-.01.02-.01.03-.01.03-.01.03-.02.03-.01.02-.01.03-.02.03-.01.03-.02.02-.02.03-.01.03-.02.02-.02.03-.02.03-.02.02-.02.03-.02.03-.02.02-.02.03-.02.02-.03.03-.02.03-.02.02-.03.03-.02.02-.03.03-.03.02-.02.03-.03.02-.03.02-.03.03-.03.02-.03.03-.03.02-.03.02-.03.03v.02l-.01.04-.01.05-.01.04-.01.02-.01.05-.01.04v.02l-.01.05-.01.02v.05l-.01.02-.01.04v.02l-.01.05-.01.02-.01.05v.04l-.01.04-.01.05-.01.04-.01.05-.01.04v.02H308.35l.11-.01h.19l.04-.01v-.02l.01-.02.01-.05.01-.04.03-.12.01-.04.01-.04.01-.02v-.04l.01-.04.01-.02.01-.02.01-.06.01-.05.02-.05.02-.06.01-.05.02-.05.02-.05.01-.05.02-.05.02-.05.02-.05.02-.05.02-.05.03-.05.02-.04.02-.05.02-.05.03-.05.02-.04.03-.05.02-.04.03-.05.02-.04.03-.05.03-.04.03-.04.02-.05.03-.04.03-.04.03-.04.03-.04.03-.05.03-.04.04-.04.03-.04.03-.03.03-.04.04-.04.03-.04.03-.04.03-.07.02-.07.02-.07.02-.07.02-.07.02-.07.02-.07.03-.07.02-.07.02-.07.02-.07.02-.07.03-.07.02-.07.02-.07.02-.07.03-.07.02-.07.02-.07.02-.07.03-.07.02-.07.02-.07.03-.06.02-.07.03-.07.02-.07.02-.07.03-.07.02-.07.03-.07.02-.07.03-.07.02-.07.03-.07.03-.07.02-.06.03-.07.02-.07.03-.07.08-.19.1-.18.11-.17.12-.17.14-.16.15-.15.16-.15.17-.13.18-.13.19-.12.2-.12.2-.1.21-.1.22-.09.23-.08.22-.08.23-.06.24-.06.24-.05.23-.04.24-.04.24-.02.24-.02.24-.01h.23l.24.01.22.02.23.03.22.03.21.05.21.05.2.06.19.07.18.08.17.09.16.1.16.11.14.12.12.12.12.14.24-1.16.26-1.16.27-1.16.28-1.15.3-1.14.32-1.14.33-1.13.34-1.12.36-1.12.38-1.1.4-1.1.41-1.08.42-1.08.45-1.06.46-1.06.49-1.04.5-1.03.51-1.01.54-1 .56-.99.58-.97.59-.95.62-.94.64-.93.66-.9.68-.89.7-.87.72-.85.75-.83.76-.8.79-.79.82-.77.84-.75.86-.72.88-.7.91-.67.94-.66.95-.62.99-.6 1.01-.58.46-.25.46-.24.47-.24.47-.22.48-.23.47-.21.48-.21.49-.2.48-.2.49-.18.49-.18.49-.18.5-.17.5-.16.5-.15.5-.15.5-.14.51-.13.5-.13.51-.12.51-.11.52-.11.51-.1.52-.09.51-.09.52-.08.52-.07.52-.07.52-.06.52-.05.52-.05.52-.04.52-.03.53-.03.52-.02.52-.01.53-.01h.52l.53.01zm-59.63 44.49h-.16l-.16.67-.17.67-.16.67-.16.67.09-.1.09-.08.1-.09.1-.08.15-.59.15-.58.14-.58.15-.58h-.16z" id="c"/><path d="M233.17 108.57c1.08 0 2.18-.24 3.17-.64 1.16-.48 3.15-1.6 2.21-3.07-1.04-1.61-1.75-3.41-2.8-5.02-.36-.56-1.61-.62-2.16-.62-1.07 0-2.17.24-3.16.65-1.16.47-3.15 1.59-2.21 3.06 1.04 1.61 1.75 3.41 2.8 5.02.36.56 1.61.62 2.15.62z" id="d"/><path d="M113.8 104.47c1.35-.36 3.98-1.76 3.36-3.61-.59-1.78-1.24-3.7-2.55-5.09-1.38-1.46-3.8-1.2-5.45-.44-1.18.55-3.37 2.4-1.99 3.87 1.09 1.16 1.37 2.21 1.91 3.83.62 1.85 3.18 1.85 4.72 1.44z" id="e"/><path d="M141.05 107.93c-2.42 0-8.81 3.65-3.4 3.65 2.42 0 8.8-3.65 3.4-3.65z" id="f"/><path d="M403.87 106.77c.92-.24 2.01-.67 2.7-1.36 1.01-1.02 2.08-2.09 2.75-3.38.3-.56.5-1.14-.01-1.68-.54-.56-1.46-.7-2.19-.72-1.08-.02-2.18.22-3.17.63-.72.31-1.77.85-2.16 1.59a8.71 8.71 0 0 1-1.01 1.47c-.02.02-.04.05-.06.07-.03.04-.06.07-.08.09-.19.2-.38.39-.56.57-.45.46-.99 1.05-.8 1.76.18.69.95 1 1.57 1.13.99.21 2.05.09 3.02-.17z" id="g"/><path d="M444.36 120.56c3.78-3.16 7.46-6.44 10.38-10.43.82-1.12-3.01-.69-3.21-.66-1.52.29-3.76.79-4.75 2.14-2.72 3.71-6.2 6.72-9.71 9.66-1.43 1.19 1.26 1.24 1.87 1.18 1.8-.17 3.99-.7 5.42-1.89z" id="h"/><path d="M456.14 199.99c-1.76 0-4.22 1.34-4.46 3.26-.25 2.11 2.16 2.64 3.74 2.64h13.95c1.76 0 4.22-1.34 4.46-3.26.25-2.12-2.16-2.64-3.74-2.64h-13.95z" id="i"/><path d="M208.45 248.22c-1.54 3.65-2.81 7.36-3.9 11.16-.61 2.1 7.36.96 8.01-1.29 1.1-3.8 2.36-7.52 3.9-11.16.64-1.51-2.76-1.18-3.31-1.09-1.43.23-4.05.85-4.7 2.38z" id="j"/><path d="M223.32 253.7c-.95.25-1.92.59-2.77 1.09-.41.25-.97.58-.97 1.12 0 .33-.02.66-.06.99-.07.3-.17.57-.36.82.01-.01.02-.02.03-.04-.18.24-.3.51.06.73.56.32 1.43.23 2.04.17 1.07-.1 2.13-.36 3.14-.72.7-.24 1.76-.59 2.28-1.16.43-.47.69-.82.81-1.44.1-.51.15-1 .15-1.51-.01-.48-1.21-.48-1.4-.49-1-.01-2 .18-2.95.44z" id="k"/><path d="M375.84 265.96c2.42 4.69 5.55 8.94 8.37 13.39 1.25 1.97 8.71-1.19 8.08-2.17-2.81-4.45-5.95-8.7-8.37-13.39-1.01-1.97-8.71.95-8.08 2.17z" id="l"/><path d="M390.99 255.91c-1 .27-4.25 1.71-3.43 3.35 1.11 2.23 2.23 4.46 3.35 6.7.84 1.68 3.05 1.61 4.65 1.18 1-.27 4.25-1.71 3.43-3.35-1.12-2.23-2.23-4.46-3.35-6.7-.84-1.68-3.05-1.61-4.65-1.18z" id="m"/><path d="M53.24 198.01c-1.53.42-3.84 1.84-3.32 3.78.52 1.93 3.23 2.03 4.77 1.61 4.22-1.16 8.57-1.76 12.83-2.79 1.55-.38 3.83-1.87 3.32-3.78-.52-1.96-3.21-1.98-4.76-1.61-4.26 1.03-8.61 1.64-12.84 2.79z" id="n"/><path d="M173.77 163.42c.08-6.28 1.13-12.74-1.04-18.77.14-.68.28-1.36.41-2.05.56-3.02-9.45-1.42-11.03 1.34-.99.81-1.49 1.78-1.08 2.76.11.25.2.5.3.75-1.9 9.26-4.54 18.23-7.58 27.2-1.16 3.43-2.56 6.79-3.75 10.21-1.68-3.19-3.38-6.34-4.75-9.76-3.97-9.92-7.55-19.94-12.39-29.49.55-4.42-9.25-3.95-11.19.09-2.33 4.9-2.03 9.84-1.26 15.07.87 5.9 1.02 11.7 1.09 17.66.14 11.49 1.03 22.95 1.2 34.44-1.02 1.13-1.33 2.54-.26 3.97.47.62 1.05 1.1 1.65 1.59 2.62 2.09 10.12.31 10.1-3.68-.04-11.91-.89-23.8-1.21-35.71-.03-1.16-.05-2.33-.07-3.5.17.42.33.84.5 1.26 1.85 4.63 3.78 9.14 6.31 13.45 2.51 4.26 3.77 8.85 5.21 13.51-.54.62-.87 1.33-.67 2.04-.11.52.2.85.73 1.04 1.84 1.58 5.32.8 7.25-.02.83-.35 1.62-.75 2.39-1.22.99-.61 2.55-1.96 2.1-3.35-.09-.26-.17-.53-.25-.8 1.36-3.67 2.05-7.48 2.79-11.36.79-4.12 2.26-8.03 3.74-11.94.16 1.79.31 3.58.45 5.36.59 7.38.1 14.66.03 22.04-.03 2.44.15 4.72.63 7.11.19.99 1.06 5.22.81 5.45-1.77 1.63-1.25 3.63 1.11 4.15 2.65.58 6.02-.3 8.01-2.14 3.46-3.2 1.83-8.22 1.04-12.26-1.32-6.76.27-14.34.06-21.23-.24-7.75-1.48-15.45-1.38-23.21z" id="o"/><path d="M197.08 171.62c-.03-6.66.52-13.27-.45-19.9-.3-2.09-11.72.29-11.32 3.04.9 6.09.57 12.22.46 18.36-.1 5.9 1.35 11.26 2.11 17.06.78 5.93-.24 12.01.43 17.95.32 2.78 2.17 7.93.26 10.35-1.21 1.53 4.25.98 4.49.94 2.22-.41 5.18-1.13 6.66-3 1.88-2.39.56-7.01.15-9.7-.91-5.95-.33-12.13-.55-18.13-.22-5.75-2.21-11.16-2.24-16.97z" id="p"/><path d="M221.77 174.55c-3.98-1.14-4.03-6.57-4.02-9.82.01-4.12-.33-7.89-.79-11.98-.34-3.04-.07-6.13 2.15-8.39.41-.42 2.48-.97 2.34-.98 1.02-.18 1.96-.22 3.09-.27 4.47-.19 13.33.67 11.61 7.18-.77 2.91 10.4 1.24 11.21-1.84 3.51-13.29-21.05-10.74-27.99-8.9-6.39 1.7-13.44 5.33-13.8 12.71-.18 3.52.78 6.87.94 10.37.17 4.01-.58 8.02.83 11.89 3.13 8.62 15.95 4.56 22.48 5.04 11.11.84 7.8 15.81 7.94 22.78.08 3.73 3.41 9.91.61 13.03-1.72 1.91-5.73 2.02-8.07 2.21-2.35.2-6.36.91-7.93-1.33-2.87-4.09.27-10.97-.34-15.67-.35-2.67-11.76-.28-11.32 3.03.99 7.59-4.05 17.75 6.94 19.06 7.05.84 15-.47 21.67-2.68 3.46-1.15 6.67-2.73 9.37-5.19 3-2.71 2.01-6.78 1.21-10.24-1.95-8.43 2.12-18.14-3.39-25.56-5.96-8.05-17.02-2.26-24.74-4.45z" id="q"/><path d="M294.55 145.81c-.03-5.7-11.46-3.77-11.44.99.04 10.42 1.44 20.71 1.97 31.1.01.21.02.43.04.64-5.64-.05-11.27.51-16.92.71.59-13.39-1.76-26.66-1.25-40.04.06-1.68-11.19-.26-11.32 3.03-.49 12.93 1.7 25.77 1.31 38.7-.19 6.17-.71 12.32-.75 18.5-.03 3.16.49 6.31.95 9.43.42 2.88 1.4 6.73.52 9.59-.68 2.23 10.3.83 11.16-2.01 1.58-5.14-.64-11.67-1.17-16.87-.5-4.99-.11-10.11.25-15.17 5.86-.37 11.73-.86 17.57-.03.26 3.98.56 7.96.93 11.94.3 3.35.51 6.69.56 10.05.05 2.94.41 7.21-.64 10-2.23 5.94 9.11 5.45 10.76 1.05 2.04-5.4 1.46-12.13 1.11-17.81-.43-7.07-1.38-14.09-1.61-21.16-.35-10.91-1.99-21.71-2.03-32.64z" id="r"/><path d="M335.07 168.85c2.89-5.63 5.83-11.27 8.47-17.02 2.4-5.22 4.18-11.03 8.9-14.71 1.66-1.29 1.59-2.59-.74-2.75-2.53-.18-5.96.55-8 2.14-4.29 3.35-7.01 7.41-9.25 12.34-2.69 5.92-5.48 11.74-8.42 17.55-.21.43-.43.85-.65 1.28-1.41.91-2.27 2.2-1.84 3.66-2.29 4.52-4.63 9.01-7.22 13.32-.87-15.99-2.76-31.96-3.33-47.96-.13-3.67-11.48-1.39-11.32 3.03.7 19.84 3.52 39.64 3.72 59.49-.05.04-.09.09-.14.14-.87.89-.55 1.43.15 1.74.01 5.06-.17 10.12-.6 15.18-1.37 2.16 1.33 3.29 3.13 3.29h.28c2.14 0 7.59-1.01 7.85-3.94.56-6.07.73-12.12.67-18.18 4.6-4.95 8.35-10.49 11.73-16.28 2.19 4.28 4.28 8.59 5.74 13.24 2.49 7.92 6.65 15.2 9.05 23.16 1.58 5.21 12.88 2.13 11.32-3.03-2.4-7.96-6.37-15.31-9.05-23.16-2.72-7.97-6.86-14.96-10.45-22.53z" id="s"/><path d="M396.15 140.27l.46.03.46.04.45.05.43.07.42.07.41.09.4.1.39.11.38.13.37.13.35.15.34.17.33.17.32.19.31.2.29.22.29.23.27.25.26.26.25.27.23.29.23.3.21.31.2.34.19.34.18.37.16.37.15.4.14.4.13.43.11.44.1.46.09.47.08.49.06.51.05.52.05.58.05.57.04.58.04.58.04.58.04.57.04.58.04.58.03.58.03.58.04.58.03.58.03.58.03.58.02.59.03.58.03.58.02.58.03.58.02.59.02.58.02.58.03.58.02.59.02.58.02.58.02.58.03.58.02.59.02.58.02.58.02.58.02.58.03.58.02.58.02.58.03.58.02.58.03.57.03.58V173l.01.07v.14l.01.08V173.51l.01.07V173.8l.01.07V174.09l.01.07V174.38l.01.07v.22l.01.15V175.03l.01.08V175.32l.01.08v.14l.01.07V175.76l.2-.02.2-.01.2-.02.2-.01.2-.01.21-.01h.21l.2-.01h.42l.2.01h.21l.2.02.21.01.2.02.2.02.2.03.19.03.19.03.19.04.18.05.18.05.18.06.17.06.17.06.16.08.15.07.15.09.14.09.14.1.13.11.12.11.11.12.11.12.09.14.09.14.08.15.07.16.06.17.05.17.04.19.03.18v.36l-.02.17-.04.18-.05.17-.06.17-.07.17-.09.16-.1.16-.11.16-.12.16-.13.15-.14.15-.15.15-.16.14-.16.14-.18.14-.18.13-.19.13-.2.12-.21.12-.21.12-.22.11-.22.11-.23.11-.23.09-.23.1-.24.09-.24.08-.25.08-.24.08-.25.07-.25.06-.26.06-.25.05-.25.05-.25.04-.25.04.01.41v.42l.01.41.01.42.01.41.01.41.01.42v.41l.02.83.01.42v.41l.01.42.01.41.01.42.01.41v.41l.01.42.01.41.01.42.01.41.01.42.01.41.01.42.01.41.01.41.01.42.01.41.01.42.01.41.02.42.01.41.01.42.02.41.01.41.01.42.02.41.01.42.02.41.02.41.01.3.02.31.02.32.03.34.03.35.03.35.03.37.03.38.03.38.04.39.03.4.04.41.03.4.03.42.02.42.03.41.02.43.02.42.01.42.01.43v.42l-.01.42-.01.41-.01.42-.03.41-.03.4-.04.4-.05.39-.06.38-.07.38-.08.37-.09.35-.11.35-.11.34-.13.32-.14.31-.15.3-.17.28-.18.27-.2.25-.12.13-.13.14-.12.12-.14.13-.13.12-.14.12-.15.11-.15.11-.15.1-.15.11-.16.1-.16.09-.16.09-.16.09-.17.09-.17.08-.17.08-.18.08-.17.07-.18.08-.18.06-.17.07-.18.06-.19.07-.18.05-.18.06-.18.06-.18.05-.19.05-.18.05-.18.04-.19.05-.18.04-.18.04-.18.04-.18.04-.17.03-.18.04-.17.03-.18.03-.02.01h-.05l-.06.01-.08.01h-.09l-.11.01-.12.01-.14.01-.14.01-.16.01-.16.01-.17.01h-.18l-.18.01h-.95l-.19-.01-.18-.01-.19-.01-.17-.02-.17-.02-.17-.02-.15-.03-.15-.03-.13-.04-.13-.04-.11-.05-.09-.05-.09-.05-.06-.07-.05-.07-.03-.07v-.08l.01-.09.03-.09.06-.1.08-.11.17-.22.16-.23.15-.25.14-.26.12-.27.11-.29.1-.29.09-.31.08-.31.07-.32.06-.33.06-.34.04-.34.04-.35.02-.36.03-.36.01-.36.01-.37V209.69l-.01-.37-.02-.37-.02-.38-.02-.36-.02-.37-.03-.37-.02-.36-.03-.35-.03-.35-.03-.35-.03-.34-.03-.33-.03-.32-.02-.32-.03-.31-.02-.29-.02-.29-.02-.27-.01-.26-.02-.51-.02-.5-.02-.5-.02-.5-.02-.5-.02-.5-.02-.5-.02-.5-.02-.5-.02-.51-.02-.5-.02-.5-.01-.5-.02-.5-.02-.5-.02-.51-.01-.5-.02-.5-.02-.5-.01-.5-.02-.51-.01-.5-.02-.5-.01-.5-.01-.51-.02-.5-.01-.5-.01-.5-.01-.5-.02-.51-.01-.5-.01-.5-.01-.5v-.5l-.01-.5-.01-.51-.01-.5v-.5l-.01-.5v-.5l-.24.03-.23.03-.23.03-.23.03-.24.03-.23.04-.23.03-.23.03-.24.04-.23.04-.23.03-.23.04-.24.03-.23.04-.23.03-.23.04-.24.03-.23.04-.23.03-.24.03-.23.03-.23.03-.24.02-.23.03-.23.02-.24.02-.23.02-.24.02-.23.01-.24.02-.24.01h-.23l-.24.01h-.47l-.24-.01-.24-.01-.24-.01-.24-.02-.24-.02-.3-.03-.31-.04-.32-.03-.33-.05-.33-.04-.35-.05-.35-.06-.36-.05-.36-.06-.37-.05-.38-.06-.38-.06-.38-.05-.39-.06-.39-.05-.4-.06-.39-.05-.4-.05-.4-.04-.4-.05-.4-.04-.4-.03-.39-.03-.4-.02-.4-.02-.39-.01-.39-.01h-.38l-.38.01-.38.02-.37.02-.36.04-.36.04-.36.06-.34.06-.34.08-.33.08-.32.1-.31.11-.3.12.01.18.01.17.01.18.01.17.01.18.01.18.01.17.01.18.01.17.01.18.01.18.01.17.01.18.01.18.01.17v.18l.01.17.01.18.01.18.01.17v.18l.01.18.01.17v.18l.01.18.01.17v.18l.01.18.01.17v.18l.01.18v.17l.01.18v.18l.01.18v.35l.01.18v.35l.01.6.01.6.01.61v.6l.01.6v.6l.01.6v1.2l.01.61V202.18l-.01.6V204.58l-.01.61v1.2l-.01.6v1.2l-.01.61V210.6l-.01.6v2.41l-.01.6v.6l-.02.23-.06.23-.1.22-.13.21-.17.2-.2.2-.24.2-.25.18-.29.18-.31.17-.33.17-.34.15-.37.15-.38.15-.39.13-.4.12-.41.12-.42.11-.42.1-.43.09-.42.08-.42.07-.42.07-.41.05-.41.04-.39.04-.38.02-.36.02H362.39l-.31-.02-.28-.03-.26-.03-.23-.05-.2-.06-.17-.08-.14-.08-.1-.09-.06-.11-.02-.12v-.76l.01-.76v-1.52l.01-.76v-.75l.01-.76v-.76l.01-.76v-.76l.01-.76v-.76l.01-.76v-.76l.01-.76v-.76l.01-.76V202.65l.01-.76v-.76l-.01-.76v-1.52l-.01-.76v-.76l-.01-.76-.01-.76-.01-.76-.01-.76-.01-.76-.02-.76-.02-.76-.02-.76-.02-.76-.03-.76-.02-.76-.03-.76-.03-.76-.04-.66-.04-.66-.04-.66-.05-.66-.06-.66-.06-.67-.06-.66-.07-.67-.07-.67-.07-.67-.07-.67-.08-.67-.07-.68-.08-.67-.08-.67-.07-.68-.07-.67-.07-.68-.07-.67-.07-.67-.06-.68-.05-.67-.06-.68-.04-.67-.04-.67-.04-.68-.03-.67-.02-.67-.01-.67v-.67l.01-.67.01-.67.03-.66.03-.67.05-.66.06-.66.07-.66.09-.66.09-.65.12-.66.11-.59.12-.58.14-.57.14-.57.16-.55.16-.55.18-.53.19-.53.2-.52.2-.51.22-.5.23-.49.25-.48.25-.47.26-.47.28-.45.28-.45.3-.43.31-.43.32-.41.33-.41.34-.4.36-.39.36-.38.38-.36.39-.36.4-.36.42-.34.42-.33.44-.32.45-.31.46-.3.47-.3.48-.28.5-.27.51-.27.52-.25.54-.24.54-.24.56-.22.49-.19.5-.18.5-.18.51-.17.51-.17.52-.17.52-.16.53-.15.53-.15.54-.15.53-.14.54-.14.55-.13.54-.12.55-.13.55-.12.56-.11.55-.11.56-.11.56-.1.55-.1.56-.09.56-.09.56-.08.56-.09.56-.07.56-.07.56-.07.55-.07.56-.06.55-.05.55-.06.55-.05.54-.04.55-.04.54-.04.54-.03.53-.03.53-.03.52-.02.52-.01.5-.01.49.01.48.02zm-9.04 4.47l-.42.04-.42.05-.42.05-.42.07-.42.07-.42.07-.43.08-.42.08-.3.05-.32.04-.33.04-.35.03-.35.03-.37.03-.36.03-.38.03-.37.04-.38.03-.37.05-.37.05-.36.06-.35.06-.35.08-.33.09-.32.11-.3.12-.28.14-.26.15-.91.66-.82.72-.74.79-.68.86-.6.91-.54.96-.47 1.01-.42 1.04-.36 1.07-.3 1.1-.25 1.12-.21 1.13-.16 1.15-.12 1.14-.08 1.14-.05 1.13-.02 1.11.01 1.09.04 1.06.06 1.03.04.55.04.54.04.54.04.54.04.54.04.55.05.54.04.54.04.54.05.54.05.54.04.54.05.54.04.54.05.54.04.54.05.54.05.54.04.54.05.54.94-.18.94-.15.95-.11.95-.09.96-.07.95-.04.97-.01.96-.01.97.02.97.03.97.04.98.05.97.05.98.06.99.06.98.06.99.05.98.05.99.04.99.03.25.01h.98l.25-.01.24-.01h.25l.24-.01.24-.01.25-.02.24-.01.24-.02.24-.01.24-.02.24-.02.24-.02.24-.02.25-.03.23-.02-.04-.87-.05-.86-.06-.87-.05-.87-.06-.86-.06-.87-.06-.87-.06-.86-.06-.87-.06-.87-.05-.86-.05-.87-.05-.87-.05-.87-.04-.86-.03-.87-.03-.87-.02-.87-.01-.87v-.87l.01-.55.01-.63.02-.68.02-.72.02-.76.01-.8.01-.82-.02-.83-.03-.84-.05-.84-.08-.83-.11-.82-.15-.79-.18-.75-.22-.72-.27-.67-.32-.61-.38-.54-.43-.47-.49-.39-.38-.24-.39-.2-.39-.17-.39-.14-.4-.12-.4-.09-.4-.06-.41-.05-.41-.02-.41-.01-.42.01-.41.03z" id="t"/><path d="M193.79 142.37c.25-.21.49-.42.74-.63 1.5-.97 2.8-2.39 2.1-3.93-1.45-3.19-1.22-6.44-1.2-9.86.02-2.77-2.78-3.6-5.15-3.4-2.08.19-6.26 1.68-6.28 4.4-.02 2.87-.21 5.82.32 8.64-.14.33-.22.69-.31 1.03-.16.61.05 1.21.42 1.7v.39c.02.32.03.65.05.97.21.67.62 1.18 1.24 1.53 1.11.67 2.53.8 3.8.67 1.51-.14 3.02-.65 4.27-1.51z" id="u"/></defs><use xlink:href="#a" fill="url(#b)"/><use xlink:href="#c"/><use xlink:href="#c" fill-opacity="0" stroke="#000" stroke-opacity="0"/><use xlink:href="#d"/><use xlink:href="#d" fill-opacity="0" stroke="#000" stroke-opacity="0"/><use xlink:href="#e"/><use xlink:href="#e" fill-opacity="0" stroke="#000" stroke-opacity="0"/><use xlink:href="#f"/><use xlink:href="#f" fill-opacity="0" stroke="#000" stroke-opacity="0"/><use xlink:href="#g"/><use xlink:href="#g" fill-opacity="0" stroke="#000" stroke-opacity="0"/><use xlink:href="#h"/><use xlink:href="#h" fill-opacity="0" stroke="#000" stroke-opacity="0"/><use xlink:href="#i"/><use xlink:href="#i" fill-opacity="0" stroke="#000" stroke-opacity="0"/><use xlink:href="#j"/><use xlink:href="#j" fill-opacity="0" stroke="#000" stroke-opacity="0"/><use xlink:href="#k"/><use xlink:href="#k" fill-opacity="0" stroke="#000" stroke-opacity="0"/><use xlink:href="#l"/><use xlink:href="#l" fill-opacity="0" stroke="#000" stroke-opacity="0"/><g><use xlink:href="#m"/><use xlink:href="#m" fill-opacity="0" stroke="#000" stroke-opacity="0"/></g><g><use xlink:href="#n"/><use xlink:href="#n" fill-opacity="0" stroke="#000" stroke-opacity="0"/></g><g><use xlink:href="#o" fill="#fff"/><use xlink:href="#o" fill-opacity="0" stroke="#000" stroke-opacity="0"/></g><g><use xlink:href="#p" fill="#fff"/><use xlink:href="#p" fill-opacity="0" stroke="#000" stroke-opacity="0"/></g><g><use xlink:href="#q" fill="#fff"/><use xlink:href="#q" fill-opacity="0" stroke="#000" stroke-opacity="0"/></g><g><use xlink:href="#r" fill="#fff"/><use xlink:href="#r" fill-opacity="0" stroke="#000" stroke-opacity="0"/></g><g><use xlink:href="#s" fill="#fff"/><use xlink:href="#s" fill-opacity="0" stroke="#000" stroke-opacity="0"/></g><g><use xlink:href="#t" fill="#fff"/><use xlink:href="#t" fill-opacity="0" stroke="#000" stroke-opacity="0"/></g><g><use xlink:href="#u" fill="#fff"/><use xlink:href="#u" fill-opacity="0" stroke="#000" stroke-opacity="0"/></g></svg>