<svg xmlns="http://www.w3.org/2000/svg" xmlns:xlink="http://www.w3.org/1999/xlink" width="359.88" height="209"><defs><path d="M85.77 37.4c5.75 4.75 13.49-.5 16.74 1.25 3.25 1.75-.75 11 4.75 13.75s13.5-4.5 18.99-1.5c5.5 3-.5 12.25 5.25 15.99 5.75 3.75 13.75-5.49 17.5-2.49 3.74 2.99 1.75 7.49 1.5 10.99-.17 2.33.75 4.5 2.74 6.5 1.16-2.5 2.16-4.67 3-6.5-4.25-4 .75-12.49-4.99-16.49-5.75-4-11.75 4.75-16.75 2.25s-.25-12.75-5.25-16.75-14.24 2.25-19.99-.75c-5.75-3 .25-11.74-4-14.74s-13.24 4.75-15.49 2.75-.75-9.25-1-11.5c-.17-1.5-1.5-3.25-4-5.25-.67 2.83-1.5 4.83-2.5 6 3 3.25-2.25 11.75 3.5 16.49z" id="a"/><path d="M85.77 37.4c5.75 4.75 13.49-.5 16.74 1.25 3.25 1.75-.75 11 4.75 13.75s13.5-4.5 18.99-1.5c5.5 3-.5 12.25 5.25 15.99 5.75 3.75 13.75-5.49 17.5-2.49 3.74 2.99 1.75 7.49 1.5 10.99-.17 2.33.75 4.5 2.74 6.5 1.16-2.5 2.16-4.67 3-6.5-4.25-4 .75-12.49-4.99-16.49-5.75-4-11.75 4.75-16.75 2.25s-.25-12.75-5.25-16.75-14.24 2.25-19.99-.75c-5.75-3 .25-11.74-4-14.74s-13.24 4.75-15.49 2.75-.75-9.25-1-11.5c-.17-1.5-1.5-3.25-4-5.25-.67 2.83-1.5 4.83-2.5 6 3 3.25-2.25 11.75 3.5 16.49z" id="b"/><path d="M214.85 73.97c-20.41 0-36.98-16.57-36.98-36.99C177.87 16.57 194.44 0 214.85 0c20.43 0 36.99 16.57 36.99 36.98 0 20.42-16.56 36.99-36.99 36.99z" id="c"/><path d="M271.97 139.5c-12.41 0-22.49-10.08-22.49-22.49 0-12.42 10.08-22.49 22.49-22.49 12.42 0 22.5 10.07 22.5 22.49 0 12.41-10.08 22.49-22.5 22.49z" id="d"/><path d="M91.53 209c-11.04 0-20-8.97-20-20s8.96-19.99 20-19.99c11.02 0 19.99 8.96 19.99 19.99 0 11.03-8.97 20-19.99 20z" id="e"/><path d="M211.02 189c-10.21 0-18.5-8.49-18.5-18.96s8.29-18.96 18.5-18.96c10.2 0 18.49 8.49 18.49 18.96S221.22 189 211.02 189z" id="f"/><path d="M104.52 56.26c-7.18 0-12.99-5.97-12.99-13.32 0-7.35 5.81-13.32 12.99-13.32 7.17 0 13 5.97 13 13.32 0 7.35-5.83 13.32-13 13.32z" id="g"/><path d="M141.28 156.52c-17.38 0-31.49-14.41-31.49-32.17 0-17.77 14.11-32.19 31.49-32.19s31.49 14.42 31.49 32.19c0 17.76-14.11 32.17-31.49 32.17z" id="h"/><path d="M103.1 73.8l-2 5.77-39.67-13.73 1.99-5.75L103.1 73.8z" id="i"/><path d="M359.88 110.01l-.01 7-28.98-.09v-7l28.99.09z" id="j"/><path d="M351.24 139.09l-2.14 5.6-20.35-7.84 2.14-5.6 20.35 7.84z" id="k"/><path d="M332.43 56.26l1.74 5.74-69.75 21.39-1.74-5.74 69.75-21.39z" id="l"/><path d="M172.77 66.25l-4.48 3.99-14.46-16.32 4.48-3.99 14.46 16.32z" id="m"/><path d="M33.79 96.52l-.07 6-21.8-.32.07-6 21.8.32z" id="n"/><path d="M301.45 154.31l-.95 5.91-54.96-10.05.96-5.92 54.95 10.06z" id="o"/><path d="M28.16 124.35l1.44 5.82-28.16 6.66L0 131l28.16-6.65z" id="p"/><path d="M157.22 148.74l2.9 5.34-43.05 23.67-2.9-5.34 43.05-23.67z" id="q"/><path d="M273.47 82.88l.36.11.27.17.67.59.61.57.56.54.52.52.47.5.43.48.38.46.34.43.29.42.26.4.21.38.18.37.13.34.1.34.06.31.03.31-.01.29-.04.28-.07.26-.1.26-.13.24-.16.24-.19.22-.22.22-.24.21-.27.2-.29.2-.32.19-.33.18-.36.19-.37.17-.4.18-.41.18-.43.17-.44.17-.46.18-.48.17-.48.18-.5.18-.5.18-.98.35-.92.35-.84.33-.78.31-.72.3-.66.29-.6.28-.55.26-.49.25-.44.24-.39.22-.34.21-.29.2-.26.19-.21.18-.17.17-.14.15-.1.15-.06.13-.04.12-.01.12.02.1.04.09.07.09.09.07.1.07.12.06.14.05.15.04.15.03.17.02.17.02.18.01h.17l.18-.01.17-.01.17-.02.17-.03.15-.03.14-.04.81-.23.8-.21.8-.19.79-.18.78-.15.78-.13.76-.1.76-.09.74-.06.74-.04.72-.01.71.02.69.04.68.06.66.1.65.12.63.15.62.18.59.21.57.24.56.27.53.3.51.33.49.37.47.4.44.44.41.47.39.5.36.54.33.58.31.62.28.65.24.69.22.74.18.77.15.81.12.85.08.9.05.93.01.98.14-.01.14-.01.14-.01.13-.01.14-.01.14-.01.13-.01.14-.01.13-.01.14-.01.13-.01.14-.01.13-.01.14-.01.13-.01h.14l.13-.01.13-.01.27-.02.13-.01.14-.01.13-.01.13-.01h.14l.13-.01.13-.01.13-.01.14-.01.13-.01.13-.01.13-.01.14-.01.13-.01.13-.01.13-.01.14-.01.13-.01.13-.01.13-.01.24-.02h.23l.22.01.21.03.19.04.18.05.17.06.16.07.15.08.13.09.12.1.11.11.1.11.08.12.07.13.06.13.05.13.03.14.02.14.01.14-.01.14-.02.14-.03.14-.05.15-.06.14-.07.13-.09.14-.1.13-.12.12-.13.13-.14.11-.16.11-.17.1-.19.09-.2.09-.21.07-.23.07-.25.05-.25.04-.28.03-.13.02-.13.01-.14.02-.13.02-.13.01-.13.02-.14.02-.13.01-.14.02-.13.01-.13.02-.14.01-.13.01-.14.02-.13.01-.14.02-.13.01-.14.01-.13.02-.14.01-.13.01-.14.01-.13.02-.14.01-.13.01-.14.01-.13.02-.14.01-.13.01-.13.01-.14.02-.13.01-.14.01-.13.01-.13.01-.14.01-.13.01-.13.02-.13.01-.14.01v.08l-.31 1.82-.42 1.74-.53 1.66-.62 1.59-.71 1.51-.8 1.42-.87 1.35-.95 1.27-1.01 1.19-1.08 1.11-1.13 1.03-1.18.95-1.22.86-1.25.79-1.29.71-1.31.62-1.34.54-1.34.46-1.35.38-1.36.29-1.35.22-1.33.12-1.32.05-1.3-.04-1.27-.12-1.24-.21-1.19-.29-1.15-.38-1.09-.46-1.04-.54-.97-.64-.9-.71-.83-.81-.74-.89-.66-.98-.56-1.06-.46-1.15-.35-1.24-.24-1.33-.13-1.41.01-.65.06-.63.13-.6.19-.58.25-.56.3-.54.36-.52.41-.5.46-.48.52-.46.56-.44.61-.42.65-.41.7-.38.74-.38.78-.35.82-.34.86-.33.89-.31.93-.3.96-.28.99-.28 1.02-.25 1.04-.25 1.07-.24 1.1-.22 1.12-.22 1.14-.2 1.16-.19 1.17-.19 1.19-.18 1.21-.17 1.22-.16 1.23-.15 1.24-.15 1.25-.14 1.25-.14 1.26-.13 1.26-.13 1.26-.12v-1.12l-.08-.97-.17-.84-.24-.71-.32-.59-.39-.48-.46-.37-.53-.28-.58-.18-.64-.11-.69-.02-.75.04-.78.1-.83.16-.87.2-.91.24-.93.27-.96.3-.99.31-1 .32-1.03.33-1.03.32-1.05.31-1.05.28-1.05.26-1.05.23-1.04.18-1.03.14-1.03.08-1 .01-.98-.05-.97-.14-.93-.22-.9-.31-.87-.42-.83-.52-.78-.64-.75-.76-.69-.89-.63-1.03-.48-.96-.34-.97-.23-.96-.11-.95v-.95l.11-.94.2-.93.29-.93.38-.91.46-.89.54-.88.61-.87.67-.84.73-.83.78-.81.83-.79.87-.76.91-.74.94-.71.96-.68.98-.65.99-.63 1.01-.59 1-.56 1-.52.99-.49.98-.45.96-.41.93-.37.9-.33.86-.29.82-.24.77-.19.71-.15.66-.1.58-.05.52.01.44.05zm.2 34.7l-3.18.49-2.95.54-2.66.6-2.34.66-1.95.72-1.54.81-1.06.89-.53.99.03 1.08 1 2.01 1.6 1.64 2.07 1.22 2.41.73 2.62.2 2.72-.4 2.69-1.06 2.53-1.78 2.25-2.55 1.84-3.38 1.31-4.27-3.5.41-3.36.45z" id="r"/><path d="M233.99 92.6c1.43-9.92 17.02-4.79 12.96-2.72-4.24 2.17-6.31 12.44-8.93 17.25-.91 1.66-3.72 2.18-4.19 2.15-.98-.05-1.01-8.61.16-16.68z" id="s"/><path d="M114.22 81.6c-1.99-2.21-1.08-6.5 3.76-8.83 2.42-1.2 5.81-2.28 8.07 2.38 3.38 6.95-7.05 11.66-11.83 6.45z" id="t"/><path d="M134.5 79.12c-2.17-2.42-1.18-7.08 4.09-9.62 2.64-1.3 6.33-2.48 8.79 2.6 3.68 7.56-7.68 12.69-12.88 7.02z" id="u"/><path d="M89.77 117.7c2.07-15.56-1.35-16.44-4.45-13.47-4.06 3.85-6.6 13.87-6.68 23.42.4 2.4.87 4.73 1.43 6.81.48 2.33-7 4.73-11.37 1.45-1.51-1.12-2.7-12.43-2.7-27.75 0-12.59 1.67-21.26 3.18-21.66 11.45-3.12 13.28 1.93 10.81 11.39-1.03 3.93-1.67 7.7-1.99 11.31 2.39-6.66 5.81-12.11 9.7-14.52 10.58-6.65 19.41-3.53 17.74 9.71-2.87 23.66-3.1 26.87-.56 25.02 3.18-2.24 5.25 1.77 2.31 3.77-11.3 7.62-20.28 5.94-17.42-15.48z" id="v"/><path d="M135.81 91.43l1.15.22 1.09.32 1.05.42.99.52.93.64.86.75.79.86.71.97.44.77.38.8.29.83.23.86.16.88.09.9.02.93-.04.94-.11.95-.17.97-.23.97-.29.98-.35.98-.4.99-.46.98-.52.98-.57.98-.62.96-.66.95-.72.94-.76.92-.81.9-.85.88-.89.86-.94.82-.97.8-1.01.76-1.05.73-1.08.69-1.12.65-1.15.61-1.18.56-1.2.51-.05.02-.04.01-.07.03-.06.02-.15.05-.05.01-.08.03-.02.01-.05.01-.04.02-.04.01-.03.01-.04.01.26.66.29.64.3.61.32.59.34.55.36.53.38.51.39.47.41.44.42.4.44.38.45.34.46.3.47.27.49.23.5.19.51.15.51.11.53.07.53.03.55-.02.54-.07.56-.11.56-.16.56-.2.57-.26.58-.31.57-.36.58-.41.58-.46.58-.53.58-.57.57-.64.28-.29.26-.27.26-.24.26-.21.24-.19.24-.17.23-.14.22-.12.21-.09.2-.07.19-.05.18-.02.16-.01.15.02.14.05.12.06.11.08.09.11.07.12.06.15.04.16.02.18v.21l-.02.22-.04.24-.06.25-.08.28-.1.29-.13.31-.15.32-.17.34-.2.36-.23.37-.29.44-.33.43-.34.42-.38.4-.39.39-.42.37-.44.36-.46.34-.48.33-.5.31-.52.3-.54.28-.55.27-.57.25-.58.23-.6.22-.61.2-.62.19-.64.17-.64.15-.66.14-.66.12-.67.1-.68.09-.69.07-.69.05-.69.04-.7.01h-.7l-.7-.01-.7-.04-.71-.05-.7-.07-.99-.14-.97-.18-.94-.22-.92-.28-.89-.31-.87-.37-.83-.4-.81-.45-.77-.5-.75-.53-.71-.58-.68-.61-.65-.66-.61-.69-.58-.74-.53-.77-.51-.81-.46-.85-.43-.89-.38-.92-.35-.95-.3-.99-.26-1.03-.22-1.05-.17-1.09-.13-1.13-.08-1.15-.03-1.18.01-1.22.06-1.24.11-1.27.16-1.3.21-1.33.32-1.43.42-1.4.52-1.37.61-1.32.69-1.28.78-1.24.85-1.19.92-1.13.99-1.09 1.04-1.03 1.09-.97 1.13-.91 1.18-.85 1.21-.78 1.23-.71 1.26-.64 1.27-.57 1.28-.49 1.29-.41 1.28-.33 1.27-.24 1.26-.16 1.24-.07 1.21.03 1.18.12zm-5.69 5.54l-1.04 1.43-1.01 1.98-.95 2.53-.86 3.07-.74 3.6-.59 4.12-.05.62-.03.62-.02.61-.01.61v.6l.01.59.02.58.04.58.05.57.07.55 2.34-1.97 2-2.31 1.68-2.54 1.36-2.67 1.03-2.7.71-2.63.39-2.47.08-2.2-.23-1.83-.54-1.37-.8-.86-.91-.28-.98.3-1.02.87z" id="w"/><path d="M175.99 116.61c-3.42 1.04-7.39.08-7.39-3.85 0-1.45 1.27-4.82 5.16-6.74-.24-2.73-1.98-3.45-3.26-2.41-4.77 3.69-10.57 17.48-9.06 27.43.08.24.08.48.08.72.24.89.48 1.77.79 2.65.8 2.25-6.99 4.73-11.37 1.36-1.51-1.12-2.3-9.94-2.3-25.26 0-12.59 2.78-23.74 4.29-24.14 9.15-2.49 14.47 1.84 11.61 10.34-1.67 4.82-3.18 9.71-4.05 14.84 3.49-9.54 9.3-18.37 13.99-20.69 8.35-4.17 14.39 1.36 12.64 11.15-.08.16-.15.56-.15.64-.08.8-.81 3.29-.56 2.48-.74 2.35-1.27 3.25-1.91 4.26-2.28 3.58-5.57 6.25-8.51 7.22z" id="x"/><path d="M241.28 45.29l.88.15.88.22.87.28.94.38.88.43.82.49.77.54.71.59.65.64.59.69.53.72.46.77.41.8.34.84.27.88.2.91.14.93.07.96v.99l-.08 1.01-.14 1.02-.22 1.05-.3 1.06-.37 1.07-.45 1.09-.53 1.09-.61 1.1-.69 1.1-.77 1.11-.86 1.1-.93 1.1-1.03 1.09-1.11 1.09-1.2 1.08-1.29 1.06-1.38 1.05-1.47 1.03-1.56 1.02-1.66.99-1.75.97-1.85.94-1.95.91-2.04.88-.05.25-.04.25-.05.25-.05.25-.04.25-.05.26-.05.25-.04.26-.05.25-.04.26-.04.26-.05.26-.04.26-.04.26-.05.26-.04.27-.04.26-.04.27-.04.27-.04.27-.04.27-.04.27-.04.27-.04.27-.04.28-.04.27-.03.28-.04.27-.04.28-.03.28-.04.28-.03.28-.04.28-.03.29-.03.28-.04.28-.03.29-.03.29-.03.28-.03.29-.11 1.08-.1 1.06-.09 1.06-.09 1.06-.08 1.04-.07 1.04-.06 1.02-.06 1.02-.05 1.01-.04.99-.03.99-.03.97-.02.96-.01.95-.01.94v.92l.01.91.01.89.02.88.03.86.03.85.03.83.05.81.05.79.05.78.06.76.07.73.07.72.08.7.08.68.09.65.09.63.09.62.11.58.1.57.11.54.12.52.12.49.13.46.12.44.09.23.09.24.1.23.12.24.12.23.13.24.14.23.15.24.16.22.17.23.17.22.19.21.19.21.19.2.21.19.21.18.21.17.22.16.23.15.24.14.23.12.25.11.24.09.25.07.26.06.26.05.26.02h.27l.27-.01.27-.04.27-.06.28-.08.27-.11.28-.13.28-.16.28-.18.28-.21.28-.24.28-.27.28-.3.31-.33.3-.3.31-.28.3-.25.3-.22.3-.2.29-.18.29-.15.28-.13.28-.1.27-.09.25-.06.25-.03.24-.02.22.01.21.02.2.05.18.07.17.08.15.11.13.12.12.14.09.16.08.18.05.19.03.21v.23l-.01.24-.05.26-.07.27-.1.29-.12.3-.16.31-.18.33-.22.34-.25.35-.28.37-.32.37-.35.39-.39.4-.25.24-.27.24-.27.24-.29.23-.3.23-.3.22-.32.22-.32.21-.33.21-.34.2-.35.2-.36.19-.36.18-.37.18-.38.17-.38.17-.39.15-.4.16-.4.14-.41.14-.42.13-.42.12-.42.12-.43.1-.43.1-.44.09-.44.09-.44.07-.45.06-.45.06-.46.05-.45.03-.46.03-.46.02-.46.01h-.46l-.47-.01-.46-.02-.47-.04-.46-.04-.33-.05-.33-.05-.31-.06-.31-.08-.31-.08-.3-.09-.29-.09-.29-.11-.28-.11-.27-.12-.27-.13-.26-.14-.26-.15-.25-.15-.25-.16-.24-.17-.23-.17-.23-.19-.22-.19-.22-.19-.21-.21-.21-.21-.2-.22-.19-.23-.2-.23-.18-.24-.18-.25-.18-.25-.17-.26-.17-.27-.16-.27-.16-.28-.15-.28-.15-.3-.14-.29-.14-.31-.13-.31-.13-.32-.13-.32-.12-.33-.05.1-.04.1-.05.09-.05.09-.05.1-.05.09-.05.09-.05.09-.05.09-.05.09-.05.09-.05.09-.06.09-.05.09-.05.08-.05.09-.06.09-.05.08-.06.08-.05.09-.06.08-.05.08-.06.08-.06.08-.05.08-.06.08-.06.08-.06.07-.06.08-.06.08-.06.07-.06.07-.06.08-.06.07-.06.07-.07.07-.06.07-.06.07-.07.06-.06.07-.23.23-.23.23-.23.22-.24.22-.24.21-.24.2-.24.2-.25.2-.24.18-.26.19-.25.17-.26.17-.26.17-.26.16-.26.15-.27.14-.27.14-.28.14-.27.12-.28.12-.29.11-.28.11-.29.1-.3.09-.29.08-.3.08-.31.07-.3.06-.31.06-.32.05-.31.04-.32.03-.33.02-.32.02-.33.01h-.34l-.34-.01-.34-.01-.35-.03-.35-.03-.7-.09-.69-.13-.67-.17-.65-.19-.64-.23-.63-.26-.6-.3-.59-.32-.57-.36-.56-.38-.53-.42-.52-.44-.49-.48-.48-.5-.45-.53-.44-.56-.41-.59-.39-.61-.37-.64-.35-.67-.33-.69-.3-.71-.28-.74-.25-.77-.24-.79-.2-.81-.18-.83-.16-.86-.13-.87-.1-.9-.08-.92-.05-.94-.02-.96.01-.98.03-1 .06-1.02.09-1.03.13-1.06.15-1.07.18-1.08.23-1.14.26-1.1.31-1.06.33-1.03.38-.99.4-.95.43-.92.47-.88.49-.84.51-.81.55-.77.56-.73.59-.7.6-.66.63-.62.64-.59.65-.55.67-.51.68-.48.7-.44.7-.41.71-.36.72-.34.72-.29.72-.26.73-.22.72-.19.73-.14.72-.12.71-.07.72-.04h.7l.69.03.69.07.67.11.66.14.64.18.63.22.61.25.58.29.02-.15.01-.14.01-.15.01-.14.01-.15.02-.14.01-.14.01-.15.01-.14.01-.15.02-.14.01-.15.01-.14.01-.15.01-.14.02-.15.01-.14.01-.15.01-.15.01-.14.02-.15.01-.14.01-.15.01-.15.01-.14.02-.15.01-.15.01-.14.01-.15.01-.15.02-.15.01-.15.01-.14.01-.15.01-.15.01-.15.02-.15.01-.15.01-.15.01-.15.01-.03v-.03l.01-.03v-.03l.01-.03v-.03l.01-.03v-.03l.01-.03v-.06l.01-.03v-.06l.01-.03v-.06l.01-.03.01-.12v-.06l.01-.03v-.06l.01-.03v-.06l.01-.03v-.06l.01-.03v-.03l.01-.03v-.03l.01-.03v-.03l.01-.03-.17.03-.17.04-.16.04-.17.03-.17.04-.17.03-.17.04-.17.04-.18.03-.17.04-.17.03-.17.04-.18.03-.17.04-.18.03-.17.04-.18.04-.18.03-.17.03-.18.04-.18.03-.17.04-.18.03-.18.04-.18.03-.18.03-.18.04-.18.03-.18.03-.18.04-.19.03-.18.03-.18.03-.18.04-.19.03-.18.03-.18.03-.19.03-.18.03-.19.03-2.48.37-2.31.24-2.15.13-1.99.02-1.83-.09-1.69-.19-1.54-.29-1.4-.37-1.27-.46-1.14-.54-1.01-.62-.88-.68-.78-.75-.66-.82-.55-.86-.45-.92-.35-.96-.26-1-.16-1.03-.09-1.06v-1.09l.07-1.11.14-1.12.21-1.13.27-1.14.32-1.13.38-1.13.42-1.11.47-1.1.51-1.08.54-1.06.56-1.02.6-.98.61-.94.62-.9.64-.84.64-.79.65-.72.64-.66.63-.58.69-.59.67-.54.63-.49.6-.44.57-.4.54-.36.52-.31.48-.28.46-.23.43-.2.4-.16.37-.13.35-.1.32-.07.29-.04.27-.01.25.01.22.04.2.06.17.07.15.1.12.12.11.13.08.14.06.16.04.17.02.17v.19l-.02.19-.04.19-.06.2-.08.19-.1.2-.12.19-.13.19-.15.19-.16.17-.19.17-.19.16-.22.14-.38.29-.38.33-.36.4-.35.44-.33.49-.31.53-.29.57-.28.61-.25.64-.23.67-.2.7-.18.72-.15.74-.12.76-.09.78-.06.78-.03.79.01.79.04.79.08.8.11.78.16.77.19.77.24.74.28.73.33.7.37.68.42.64.47.62.52.58.57.54.63.49.67.45.74.41.79.34.85.3.9.23.97.17 1.03.11 1.1.03h.73l.19-.01h.36l.18-.01h.18l.18-.01h.18l.18-.01.18-.01h.18l.17-.01.18-.01.18-.01.17-.01.18-.01.18-.01.17-.01.18-.01.17-.01.18-.01.17-.02.18-.01.17-.01.18-.02.17-.01.17-.02.18-.01.17-.02.17-.01.18-.02.17-.01.17-.02.18-.02.17-.01.17-.02.18-.02.36-1.94.41-1.88.44-1.83.47-1.79.5-1.73.53-1.68.56-1.62.59-1.57.61-1.52.64-1.47.67-1.41.68-1.36.71-1.31.73-1.25.75-1.19.77-1.14.79-1.09.8-1.03.82-.97.83-.91.84-.86.86-.8.87-.75.87-.68.89-.63.89-.57.89-.51.91-.46.9-.39.91-.33.91-.27.91-.22.91-.15.9-.09.91-.03.89.03.9.1zm-33.56 53.67l-.94.7-.9.92-.84 1.12-.8 1.31-.73 1.49-.66 1.65-.59 1.79-.5 1.92-.4 2.04-.31 2.14-.19 2.47-.01 2.29.16 2.11.31 1.91.43 1.71.54 1.49.62 1.28.69 1.05.74.81.76.57.78.32.76.07.73-.21.68-.48.48-.57.44-.7.41-.82.38-.9.34-.98.32-1.01.28-1.04.26-1.04.22-1.02.19-.98.17-.91.13-.83.11-.72.08-.59-.06-1.09-.05-1.11-.05-1.13-.04-1.14-.03-1.16-.02-1.18-.01-1.19-.01-1.2-.01-1.21v-1.22l.01-1.23.01-1.24.01-1.25.02-1.25v-.31l.01-.15v-.16l.01-.15.01-.15.01-.15.01-.15v-.15l.01-.15.01-.14v-.15l.01-.14v-.14l-1.02-.32-1.01-.04-1 .22-.96.47zm33.55-43.71l-1.71 1.14-1.81 1.71-1.86 2.3-1.85 2.93-1.81 3.59-1.7 4.27-1.57 4.99 3.51-1.88 3.1-2.06 2.71-2.17 2.32-2.22 1.93-2.22 1.54-2.16 1.17-2.03.79-1.85.43-1.61.06-1.31-.3-.94-.86-.82-1.14-.37-1.38.1-1.57.61z" id="y"/></defs><use xlink:href="#a" fill="#f23939"/><use xlink:href="#a" fill-opacity="0" stroke="#000" stroke-opacity="0"/><use xlink:href="#b" fill-opacity="0"/><use xlink:href="#b" fill-opacity="0" stroke="#000" stroke-width="0"/><use xlink:href="#c" fill="#f23939"/><use xlink:href="#c" fill-opacity="0" stroke="#000" stroke-opacity="0"/><use xlink:href="#d" fill="#08c27e"/><use xlink:href="#d" fill-opacity="0" stroke="#000" stroke-opacity="0"/><use xlink:href="#e" fill="#08c27e"/><use xlink:href="#e" fill-opacity="0" stroke="#000" stroke-opacity="0"/><use xlink:href="#f" fill="#087cc2"/><use xlink:href="#f" fill-opacity="0" stroke="#000" stroke-opacity="0"/><use xlink:href="#g" fill="#087cc2"/><use xlink:href="#g" fill-opacity="0" stroke="#000" stroke-opacity="0"/><use xlink:href="#h" fill="#e7ca00"/><use xlink:href="#h" fill-opacity="0" stroke="#000" stroke-opacity="0"/><use xlink:href="#i" fill="#e7ca00"/><use xlink:href="#i" fill-opacity="0" stroke="#000" stroke-opacity="0"/><g><use xlink:href="#j" fill="#e7ca00"/><use xlink:href="#j" fill-opacity="0" stroke="#000" stroke-opacity="0"/></g><g><use xlink:href="#k" fill="#08c27e"/><use xlink:href="#k" fill-opacity="0" stroke="#000" stroke-opacity="0"/></g><g><use xlink:href="#l" fill="#08c27e"/><use xlink:href="#l" fill-opacity="0" stroke="#000" stroke-opacity="0"/></g><g><use xlink:href="#m" fill="#08c27e"/><use xlink:href="#m" fill-opacity="0" stroke="#000" stroke-opacity="0"/></g><g><use xlink:href="#n" fill="#08c27e"/><use xlink:href="#n" fill-opacity="0" stroke="#000" stroke-opacity="0"/></g><g><use xlink:href="#o" fill="#f23939"/><use xlink:href="#o" fill-opacity="0" stroke="#000" stroke-opacity="0"/></g><g><use xlink:href="#p" fill="#f23939"/><use xlink:href="#p" fill-opacity="0" stroke="#000" stroke-opacity="0"/></g><g><use xlink:href="#q" fill="#e7ca00"/><use xlink:href="#q" fill-opacity="0" stroke="#000" stroke-opacity="0"/></g><g><use xlink:href="#r"/><use xlink:href="#r" fill-opacity="0" stroke="#000" stroke-opacity="0"/><use xlink:href="#s"/><use xlink:href="#s" fill-opacity="0" stroke="#000" stroke-opacity="0"/><use xlink:href="#t"/><use xlink:href="#t" fill-opacity="0" stroke="#000" stroke-opacity="0"/><use xlink:href="#u"/><use xlink:href="#u" fill-opacity="0" stroke="#000" stroke-opacity="0"/><g><use xlink:href="#v"/><use xlink:href="#v" fill-opacity="0" stroke="#000" stroke-opacity="0"/></g><g><use xlink:href="#w"/><use xlink:href="#w" fill-opacity="0" stroke="#000" stroke-opacity="0"/></g><g><use xlink:href="#x"/><use xlink:href="#x" fill-opacity="0" stroke="#000" stroke-opacity="0"/></g><g><use xlink:href="#y"/><use xlink:href="#y" fill-opacity="0" stroke="#000" stroke-opacity="0"/></g></g></svg>