<svg xmlns="http://www.w3.org/2000/svg" xmlns:xlink="http://www.w3.org/1999/xlink" width="540" height="340"><defs><path d="M173.18 87.66c4.06 2.19-.94 13.75 5.94 17.19 6.88 3.44 16.88-5.62 23.75-1.87 6.87 3.75-.63 15.31 6.56 19.99 7.19 4.69 17.19-6.86 21.88-3.11 4.68 3.74 2.19 9.36 1.88 13.74-.21 2.91.94 5.63 3.42 8.13 1.45-3.13 2.7-5.84 3.76-8.13-5.32-5 .93-15.62-6.24-20.62-7.19-5-14.7 5.94-20.95 2.81-6.25-3.12-.31-15.94-6.56-20.94-6.26-5-17.81 2.81-25-.94-7.19-3.75.31-14.68-5-18.43-5.32-3.75-16.56 5.94-19.37 3.44-2.81-2.5-.94-11.57-1.25-14.38-.21-1.88-1.88-4.07-5-6.57-.84 3.54-1.88 6.04-3.13 7.51 3.75 4.06-2.81 14.69 4.38 20.62 7.19 5.94 16.87-.63 20.93 1.56z" id="a"/><path d="M173.18 87.66c4.06 2.19-.94 13.75 5.94 17.19 6.88 3.44 16.88-5.62 23.75-1.87 6.87 3.75-.63 15.31 6.56 19.99 7.19 4.69 17.19-6.86 21.88-3.11 4.68 3.74 2.19 9.36 1.88 13.74-.21 2.91.94 5.63 3.42 8.13 1.45-3.13 2.7-5.84 3.76-8.13-5.32-5 .93-15.62-6.24-20.62-7.19-5-14.7 5.94-20.95 2.81-6.25-3.12-.31-15.94-6.56-20.94-6.26-5-17.81 2.81-25-.94-7.19-3.75.31-14.68-5-18.43-5.32-3.75-16.56 5.94-19.37 3.44-2.81-2.5-.94-11.57-1.25-14.38-.21-1.88-1.88-4.07-5-6.57-.84 3.54-1.88 6.04-3.13 7.51 3.75 4.06-2.81 14.69 4.38 20.62 7.19 5.94 16.87-.63 20.93 1.56z" id="b"/><path d="M173.18 87.66c4.06 2.19-.94 13.75 5.94 17.19 6.88 3.44 16.88-5.62 23.75-1.87 6.87 3.75-.63 15.31 6.56 19.99 7.19 4.69 17.19-6.86 21.88-3.11 4.68 3.74 2.19 9.36 1.88 13.74-.21 2.91.94 5.63 3.42 8.13 1.45-3.13 2.7-5.84 3.76-8.13-5.32-5 .93-15.62-6.24-20.62-7.19-5-14.7 5.94-20.95 2.81-6.25-3.12-.31-15.94-6.56-20.94-6.26-5-17.81 2.81-25-.94-7.19-3.75.31-14.68-5-18.43-5.32-3.75-16.56 5.94-19.37 3.44-2.81-2.5-.94-11.57-1.25-14.38-.21-1.88-1.88-4.07-5-6.57-.84 3.54-1.88 6.04-3.13 7.51 3.75 4.06-2.81 14.69 4.38 20.62 7.19 5.94 16.87-.63 20.93 1.56z" id="c"/><path d="M173.18 87.66c4.06 2.19-.94 13.75 5.94 17.19 6.88 3.44 16.88-5.62 23.75-1.87 6.87 3.75-.63 15.31 6.56 19.99 7.19 4.69 17.19-6.86 21.88-3.11 4.68 3.74 2.19 9.36 1.88 13.74-.21 2.91.94 5.63 3.42 8.13 1.45-3.13 2.7-5.84 3.76-8.13-5.32-5 .93-15.62-6.24-20.62-7.19-5-14.7 5.94-20.95 2.81-6.25-3.12-.31-15.94-6.56-20.94-6.26-5-17.81 2.81-25-.94-7.19-3.75.31-14.68-5-18.43-5.32-3.75-16.56 5.94-19.37 3.44-2.81-2.5-.94-11.57-1.25-14.38-.21-1.88-1.88-4.07-5-6.57-.84 3.54-1.88 6.04-3.13 7.51 3.75 4.06-2.81 14.69 4.38 20.62 7.19 5.94 16.87-.63 20.93 1.56z" id="d"/><path d="M267.41 85.57c0-25.52 20.72-46.24 46.24-46.24 25.55 0 46.25 20.72 46.25 46.24 0 25.53-20.7 46.25-46.25 46.25-25.52 0-46.24-20.72-46.24-46.25z" id="e"/><path d="M267.41 85.57c0-25.52 20.72-46.24 46.24-46.24 25.55 0 46.25 20.72 46.25 46.24 0 25.53-20.7 46.25-46.25 46.25-25.52 0-46.24-20.72-46.24-46.25z" id="f"/><path d="M356.95 185.64c0-15.53 12.61-28.12 28.13-28.12 15.53 0 28.13 12.59 28.13 28.12 0 15.52-12.6 28.13-28.13 28.13-15.52 0-28.13-12.61-28.13-28.13z" id="g"/><path d="M356.95 185.64c0-15.53 12.61-28.12 28.13-28.12 15.53 0 28.13 12.59 28.13 28.12 0 15.52-12.6 28.13-28.13 28.13-15.52 0-28.13-12.61-28.13-28.13z" id="h"/><path d="M134.44 275.66c0-13.79 11.21-24.99 25.01-24.99 13.78 0 25 11.2 25 24.99s-11.22 25.01-25 25.01c-13.8 0-25.01-11.22-25.01-25.01z" id="i"/><path d="M134.44 275.66c0-13.79 11.21-24.99 25.01-24.99 13.78 0 25 11.2 25 24.99s-11.22 25.01-25 25.01c-13.8 0-25.01-11.22-25.01-25.01z" id="j"/><path d="M285.73 251.95c0-13.09 10.37-23.7 23.13-23.7s23.12 10.61 23.12 23.7c0 13.1-10.36 23.71-23.12 23.71-12.76 0-23.13-10.61-23.13-23.71z" id="k"/><path d="M285.73 251.95c0-13.09 10.37-23.7 23.13-23.7s23.12 10.61 23.12 23.7c0 13.1-10.36 23.71-23.12 23.71-12.76 0-23.13-10.61-23.13-23.71z" id="l"/><path d="M159.45 93.02c0-9.19 7.27-16.65 16.24-16.65 8.97 0 16.26 7.46 16.26 16.65 0 9.19-7.29 16.66-16.26 16.66-8.97 0-16.24-7.47-16.24-16.66z" id="m"/><path d="M159.45 93.02c0-9.19 7.27-16.65 16.24-16.65 8.97 0 16.26 7.46 16.26 16.65 0 9.19-7.29 16.66-16.26 16.66-8.97 0-16.24-7.47-16.24-16.66z" id="n"/><path d="M182.28 194.82c0-22.22 17.65-40.25 39.38-40.25 21.73 0 39.37 18.03 39.37 40.25 0 22.21-17.64 40.23-39.37 40.23-21.73 0-39.38-18.02-39.38-40.23z" id="o"/><path d="M182.28 194.82c0-22.22 17.65-40.25 39.38-40.25 21.73 0 39.37 18.03 39.37 40.25 0 22.21-17.64 40.23-39.37 40.23-21.73 0-39.38-18.02-39.38-40.23z" id="p"/><path d="M171.42 138.83l-49.61-17.17 2.49-7.19 49.62 17.14-2.5 7.22z" id="q"/><path d="M171.42 138.83l-49.61-17.17 2.49-7.19 49.62 17.14-2.5 7.22z" id="r"/><path d="M494.99 185.64l-36.24-.11v-8.75l36.25.11-.01 8.75z" id="s"/><path d="M494.99 185.64l-36.24-.11v-8.75l36.25.11-.01 8.75z" id="t"/><path d="M481.52 220.25l-25.45-9.8 2.68-7 25.45 9.8-2.68 7z" id="u"/><path d="M481.52 220.25l-25.45-9.8 2.68-7 25.45 9.8-2.68 7z" id="v"/><path d="M462.85 116.86l-87.21 26.74-2.18-7.17 87.22-26.75 2.17 7.18z" id="w"/><path d="M462.85 116.86l-87.21 26.74-2.18-7.17 87.22-26.75 2.17 7.18z" id="x"/><path d="M255.43 127.16l-18.08-20.41 5.6-4.99 18.08 20.41-5.6 4.99z" id="y"/><path d="M255.43 127.16l-18.08-20.41 5.6-4.99 18.08 20.41-5.6 4.99z" id="z"/><path d="M87.16 167.52l-27.26-.4.09-7.5 27.26.4-.09 7.5z" id="A"/><path d="M87.16 167.52l-27.26-.4.09-7.5 27.26.4-.09 7.5z" id="B"/><path d="M420.75 239.67l-68.72-12.56 1.2-7.41 68.71 12.58-1.19 7.39z" id="C"/><path d="M420.75 239.67l-68.72-12.56 1.2-7.41 68.71 12.58-1.19 7.39z" id="D"/><path d="M82.01 202.1l-35.21 8.33-1.8-7.29 35.21-8.32 1.8 7.28z" id="E"/><path d="M82.01 202.1l-35.21 8.33-1.8-7.29 35.21-8.32 1.8 7.28z" id="F"/><path d="M245.22 232l-53.83 29.59-3.63-6.67 53.83-29.6 3.63 6.68z" id="G"/><path d="M245.22 232l-53.83 29.59-3.63-6.67 53.83-29.6 3.63 6.68z" id="H"/><path d="M386.95 142.97l.45.13.34.22.84.73.76.72.7.67.65.65.59.63.54.6.47.57.43.54.36.53.32.5.27.47.22.46.16.43.13.42.07.39.04.39-.01.36-.05.35-.09.33-.12.32-.17.3-.2.3-.23.28-.28.27-.3.26-.34.25-.36.25-.4.24-.41.23-.45.24-.46.21-.51.22-.51.23-.54.21-.55.21-.57.23-.6.21-.6.23-1.25.45-1.23.43-1.15.44-1.05.41-.97.39-.9.38-.83.36-.75.35-.69.32-.61.32-.55.3-.49.27-.42.26-.36.25-.33.24-.26.23-.22.21-.17.19-.13.19-.07.16-.05.15-.01.15.02.12.05.12.09.11.11.09.13.08.15.08.17.06.19.05.19.04.42.05.23.01h.21l.23-.01.21-.01.21-.03.21-.04.19-.03.18-.05 1.01-.29 1-.26 1-.24.99-.23.97-.18.98-.17.95-.12.95-.11.92-.08.93-.05.9-.01.89.02.86.05.85.08.83.12.81.15.79.19.77.23.74.26.71.3.7.34.66.37.64.41.62.47.58.5.55.55.52.58.48.63.45.67.42.73.38.78.35.81.3.86.28.93.22.96.19 1.01.15 1.06.1 1.13.06 1.16.02 1.23.52-.04.16-.01.35-.03.17-.01.17-.01.16-.01.18-.02.16-.01.18-.01.16-.01.18-.02.16-.01h.17l.33-.02.34-.03.16-.01.17-.01.33-.03h.17l.49-.04.18-.01.48-.04.18-.01.49-.04.17-.01.49-.04.3-.02h.29l.27.01.26.04.24.05.23.06.21.08.2.08.19.1.16.12.15.12.14.14.12.14.1.15.09.16.07.16.07.16.04.18.02.17.01.18-.01.17-.02.18-.04.17-.07.19-.07.18-.09.16-.11.17-.13.17-.31.31-.17.14-.2.13-.22.13-.23.11-.25.11-.27.09-.28.09-.32.06-.31.05-.35.04-.16.02-.16.02-.18.02-.16.03-.16.01-.17.02-.17.03-.16.01-.18.03-.16.01-.16.02-.18.02-.16.01-.18.02-.16.02-.17.02-.17.01-.17.02-.16.02-.18.01-.16.02-.18.01-.16.02-.17.02-.17.01-.17.01-.17.03-.17.01-.33.02-.17.03-.16.01-.18.01-.32.03-.18.01-.16.02-.16.02-.17.01-.17.02v.1l-.39 2.27-.52 2.18-.67 2.07-.77 1.99-.89 1.89-1 1.77-1.09 1.69-1.19 1.59-1.26 1.49-1.35 1.39-1.41 1.28-1.48 1.19-1.52 1.08-1.57.99-1.61.88-1.64.78-1.67.67-1.68.58-1.69.47-1.7.37-1.68.27-1.67.15-1.65.06-1.62-.05-1.59-.15-1.55-.26-1.49-.36-1.44-.48-1.36-.57-1.3-.68-1.21-.8-1.13-.88-1.04-1.02-.92-1.11-.83-1.23-.7-1.32-.57-1.44-.44-1.55-.3-1.66-.16-1.77.01-.81.07-.79.17-.75.23-.72.32-.7.37-.68.45-.65.51-.62.58-.6.65-.58.7-.55.76-.52.82-.52.87-.47.93-.48.97-.43 1.03-.43 1.07-.41 1.11-.39 1.17-.37 1.2-.35 1.24-.36 1.27-.31 1.3-.31 1.34-.3 1.38-.28 1.4-.27 1.42-.25 1.45-.24 1.46-.24 1.49-.22 1.52-.21 1.52-.2 1.54-.19 1.55-.19 3.13-.35 3.15-.32 1.57-.15v-1.4l-.1-1.22-.21-1.05-.3-.89-.4-.73-.49-.6-.57-.47-.67-.35-.72-.22-.8-.14-.86-.02-.94.05-.98.12-1.04.2-1.08.25-1.14.3-1.16.34-1.2.37-1.24.39-1.25.4-1.29.41-1.29.4-1.31.39-1.31.35-1.32.33-1.31.29-1.3.22-1.29.18-1.29.1-1.25.01-1.22-.06-1.22-.18-1.16-.27-1.12-.39-1.09-.53-1.04-.65-.97-.8-.94-.95-.87-1.11-.78-1.29-.6-1.2-.43-1.21-.29-1.2-.13-1.19v-1.19l.13-1.17.25-1.17.37-1.16.47-1.14.58-1.11.67-1.1.76-1.09.84-1.05.92-1.04.97-1.01 1.04-.99 1.09-.95 1.13-.92 1.18-.89 1.2-.85 1.23-.81 1.23-.79 1.27-.74 1.25-.7 1.25-.65 1.24-.61 1.22-.57 1.2-.51 1.16-.46 1.13-.41 1.07-.37 1.03-.3.96-.23.89-.19.83-.13.72-.06.65.01.55.07zm.25 43.39l-3.97.61-3.69.67-3.33.75-2.93.83-2.43.9-1.93 1.01-1.32 1.12-.67 1.23.04 1.35 1.25 2.52 2 2.05 2.59 1.52 3.01.92 3.28.25 3.4-.5 3.36-1.33 3.17-2.23 2.81-3.18 2.3-4.23 1.64-5.34-4.38.51-4.2.57z" id="I"/><path d="M386.95 142.97l.45.13.34.22.84.73.76.72.7.67.65.65.59.63.54.6.47.57.43.54.36.53.32.5.27.47.22.46.16.43.13.42.07.39.04.39-.01.36-.05.35-.09.33-.12.32-.17.3-.2.3-.23.28-.28.27-.3.26-.34.25-.36.25-.4.24-.41.23-.45.24-.46.21-.51.22-.51.23-.54.21-.55.21-.57.23-.6.21-.6.23-1.25.45-1.23.43-1.15.44-1.05.41-.97.39-.9.38-.83.36-.75.35-.69.32-.61.32-.55.3-.49.27-.42.26-.36.25-.33.24-.26.23-.22.21-.17.19-.13.19-.07.16-.05.15-.01.15.02.12.05.12.09.11.11.09.13.08.15.08.17.06.19.05.19.04.42.05.23.01h.21l.23-.01.21-.01.21-.03.21-.04.19-.03.18-.05 1.01-.29 1-.26 1-.24.99-.23.97-.18.98-.17.95-.12.95-.11.92-.08.93-.05.9-.01.89.02.86.05.85.08.83.12.81.15.79.19.77.23.74.26.71.3.7.34.66.37.64.41.62.47.58.5.55.55.52.58.48.63.45.67.42.73.38.78.35.81.3.86.28.93.22.96.19 1.01.15 1.06.1 1.13.06 1.16.02 1.23.52-.04.16-.01.35-.03.17-.01.17-.01.16-.01.18-.02.16-.01.18-.01.16-.01.18-.02.16-.01h.17l.33-.02.34-.03.16-.01.17-.01.33-.03h.17l.49-.04.18-.01.48-.04.18-.01.49-.04.17-.01.49-.04.3-.02h.29l.27.01.26.04.24.05.23.06.21.08.2.08.19.1.16.12.15.12.14.14.12.14.1.15.09.16.07.16.07.16.04.18.02.17.01.18-.01.17-.02.18-.04.17-.07.19-.07.18-.09.16-.11.17-.13.17-.31.31-.17.14-.2.13-.22.13-.23.11-.25.11-.27.09-.28.09-.32.06-.31.05-.35.04-.16.02-.16.02-.18.02-.16.03-.16.01-.17.02-.17.03-.16.01-.18.03-.16.01-.16.02-.18.02-.16.01-.18.02-.16.02-.17.02-.17.01-.17.02-.16.02-.18.01-.16.02-.18.01-.16.02-.17.02-.17.01-.17.01-.17.03-.17.01-.33.02-.17.03-.16.01-.18.01-.32.03-.18.01-.16.02-.16.02-.17.01-.17.02v.1l-.39 2.27-.52 2.18-.67 2.07-.77 1.99-.89 1.89-1 1.77-1.09 1.69-1.19 1.59-1.26 1.49-1.35 1.39-1.41 1.28-1.48 1.19-1.52 1.08-1.57.99-1.61.88-1.64.78-1.67.67-1.68.58-1.69.47-1.7.37-1.68.27-1.67.15-1.65.06-1.62-.05-1.59-.15-1.55-.26-1.49-.36-1.44-.48-1.36-.57-1.3-.68-1.21-.8-1.13-.88-1.04-1.02-.92-1.11-.83-1.23-.7-1.32-.57-1.44-.44-1.55-.3-1.66-.16-1.77.01-.81.07-.79.17-.75.23-.72.32-.7.37-.68.45-.65.51-.62.58-.6.65-.58.7-.55.76-.52.82-.52.87-.47.93-.48.97-.43 1.03-.43 1.07-.41 1.11-.39 1.17-.37 1.2-.35 1.24-.36 1.27-.31 1.3-.31 1.34-.3 1.38-.28 1.4-.27 1.42-.25 1.45-.24 1.46-.24 1.49-.22 1.52-.21 1.52-.2 1.54-.19 1.55-.19 3.13-.35 3.15-.32 1.57-.15v-1.4l-.1-1.22-.21-1.05-.3-.89-.4-.73-.49-.6-.57-.47-.67-.35-.72-.22-.8-.14-.86-.02-.94.05-.98.12-1.04.2-1.08.25-1.14.3-1.16.34-1.2.37-1.24.39-1.25.4-1.29.41-1.29.4-1.31.39-1.31.35-1.32.33-1.31.29-1.3.22-1.29.18-1.29.1-1.25.01-1.22-.06-1.22-.18-1.16-.27-1.12-.39-1.09-.53-1.04-.65-.97-.8-.94-.95-.87-1.11-.78-1.29-.6-1.2-.43-1.21-.29-1.2-.13-1.19v-1.19l.13-1.17.25-1.17.37-1.16.47-1.14.58-1.11.67-1.1.76-1.09.84-1.05.92-1.04.97-1.01 1.04-.99 1.09-.95 1.13-.92 1.18-.89 1.2-.85 1.23-.81 1.23-.79 1.27-.74 1.25-.7 1.25-.65 1.24-.61 1.22-.57 1.2-.51 1.16-.46 1.13-.41 1.07-.37 1.03-.3.96-.23.89-.19.83-.13.72-.06.65.01.55.07zm.25 43.39l-3.97.61-3.69.67-3.33.75-2.93.83-2.43.9-1.93 1.01-1.32 1.12-.67 1.23.04 1.35 1.25 2.52 2 2.05 2.59 1.52 3.01.92 3.28.25 3.4-.5 3.36-1.33 3.17-2.23 2.81-3.18 2.3-4.23 1.64-5.34-4.38.51-4.2.57z" id="J"/><path d="M353.79 151.72c-5.3 2.71-7.89 15.55-11.17 21.57-1.13 2.07-4.65 2.72-5.24 2.69-1.22-.07-1.26-10.77.21-20.86 1.78-12.4 21.28-5.99 16.2-3.4z" id="K"/><path d="M353.79 151.72c-5.3 2.71-7.89 15.55-11.17 21.57-1.13 2.07-4.65 2.72-5.24 2.69-1.22-.07-1.26-10.77.21-20.86 1.78-12.4 21.28-5.99 16.2-3.4z" id="L"/><path d="M192.52 130.32c3.03-1.5 7.27-2.85 10.1 2.98 4.22 8.69-8.82 14.58-14.8 8.07-2.49-2.77-1.35-8.13 4.7-11.05z" id="M"/><path d="M192.52 130.32c3.03-1.5 7.27-2.85 10.1 2.98 4.22 8.69-8.82 14.58-14.8 8.07-2.49-2.77-1.35-8.13 4.7-11.05z" id="N"/><path d="M218.3 126.23c3.3-1.62 7.91-3.1 10.99 3.26 4.6 9.45-9.61 15.86-16.11 8.77-2.71-3.02-1.47-8.85 5.12-12.03z" id="O"/><path d="M218.3 126.23c3.3-1.62 7.91-3.1 10.99 3.26 4.6 9.45-9.61 15.86-16.11 8.77-2.71-3.02-1.47-8.85 5.12-12.03z" id="P"/><path d="M151.69 169.66c-5.08 4.82-8.26 17.35-8.36 29.29.5 3 1.09 5.91 1.79 8.51.6 2.92-8.75 5.92-14.22 1.82-1.88-1.4-3.37-15.55-3.37-34.7 0-15.75 2.09-26.59 3.97-27.09 14.32-3.9 16.61 2.42 13.52 14.24-1.29 4.92-2.09 9.63-2.49 14.15 2.99-8.33 7.27-15.15 12.13-18.16 13.23-8.31 24.27-4.41 22.18 12.14-3.58 29.59-3.87 33.6-.7 31.29 3.98-2.8 6.57 2.21 2.89 4.71-14.13 9.53-25.36 7.43-21.78-19.35 2.59-19.46-1.69-20.56-5.56-16.85z" id="Q"/><path d="M151.69 169.66c-5.08 4.82-8.26 17.35-8.36 29.29.5 3 1.09 5.91 1.79 8.51.6 2.92-8.75 5.92-14.22 1.82-1.88-1.4-3.37-15.55-3.37-34.7 0-15.75 2.09-26.59 3.97-27.09 14.32-3.9 16.61 2.42 13.52 14.24-1.29 4.92-2.09 9.63-2.49 14.15 2.99-8.33 7.27-15.15 12.13-18.16 13.23-8.31 24.27-4.41 22.18 12.14-3.58 29.59-3.87 33.6-.7 31.29 3.98-2.8 6.57 2.21 2.89 4.71-14.13 9.53-25.36 7.43-21.78-19.35 2.59-19.46-1.69-20.56-5.56-16.85z" id="R"/><path d="M214.82 153.66l1.44.27 1.36.4 1.31.53 1.24.65 1.16.8 1.08.94.99 1.07.88 1.21.55.97.48 1 .36 1.03.29 1.08.2 1.1.11 1.13.03 1.16-.05 1.17-.14 1.19-.21 1.22-.29 1.21-.36 1.22-.44 1.23-.5 1.24-.58 1.22-.65 1.23-.71 1.22-.77 1.2-.83 1.19-.9 1.18-.95 1.15-1.01 1.12-1.07 1.1-1.11 1.08-1.17 1.02-1.22 1-1.26.95-1.31.92-1.35.86-1.4.81-1.44.77-1.48.7-1.5.63-.06.03-.05.01-.09.04-.26.09-.06.01-.1.04-.03.01-.06.01-.05.03-.05.01-.04.01-.05.01.33.83.36.8.38.76.4.74.42.69.45.66.48.64.48.59.52.55.52.5.55.47.56.43.58.37.59.34.61.29.63.23.63.19.64.14.66.09.67.03.68-.02.68-.09.7-.14.7-.2.7-.25.71-.32.73-.39.71-.45.73-.51.72-.58.73-.66.72-.71.71-.8.35-.37.33-.33.32-.3.33-.27.3-.23.3-.22.29-.17.27-.15.27-.11.25-.09.23-.06.23-.03.2-.01.19.02.17.07.15.07.14.1.11.14.09.15.07.19.05.2.03.22v.26l-.03.28-.05.3-.07.31-.1.35-.13.37-.16.38-.19.4-.21.43-.25.45-.29.46-.36.55-.41.54-.43.52-.47.5-.49.49-.53.46-.55.45-.57.43-.6.41-.63.39-.65.38-.67.35-.69.33-.71.32-.73.28-.75.28-.76.25-.78.24-.8.21-.8.19-.82.17-.83.15-.83.13-.86.11-.86.09-.86.06-.86.05-.88.01h-.87l-.88-.01-.87-.05-.89-.06-.88-.09-1.24-.18-1.21-.22-1.17-.28-1.15-.35-1.12-.38-1.08-.47-1.04-.5-1.02-.56-.96-.62-.94-.67-.88-.72-.85-.77-.82-.82-.76-.86-.73-.93-.66-.96-.64-1.01-.57-1.07-.54-1.11-.47-1.15-.44-1.19-.38-1.24-.32-1.28-.28-1.32-.21-1.36-.16-1.41-.1-1.44-.04-1.48.01-1.52.08-1.55.14-1.59.2-1.63.26-1.66.4-1.79.52-1.75.65-1.71.77-1.65.86-1.6.97-1.55 1.07-1.49 1.15-1.41 1.24-1.37 1.3-1.29 1.36-1.21 1.41-1.14 1.48-1.06 1.51-.97 1.54-.89 1.57-.8 1.59-.71 1.6-.62 1.62-.51 1.6-.41 1.58-.3 1.58-.2 1.55-.09 1.51.04 1.48.15zm-7.12 6.92l-1.3 1.79-1.26 2.48-1.19 3.16-1.07 3.84-.93 4.5-.74 5.15-.06.78-.04.77-.02.77-.01.76v.75l.01.74.02.72.05.73.07.71.08.69 2.93-2.46 2.5-2.89 2.1-3.18 1.7-3.34 1.29-3.37.89-3.29.49-3.09.1-2.75-.29-2.29-.68-1.71-1-1.08-1.13-.35-1.23.38-1.28 1.08z" id="S"/><path d="M214.82 153.66l1.44.27 1.36.4 1.31.53 1.24.65 1.16.8 1.08.94.99 1.07.88 1.21.55.97.48 1 .36 1.03.29 1.08.2 1.1.11 1.13.03 1.16-.05 1.17-.14 1.19-.21 1.22-.29 1.21-.36 1.22-.44 1.23-.5 1.24-.58 1.22-.65 1.23-.71 1.22-.77 1.2-.83 1.19-.9 1.18-.95 1.15-1.01 1.12-1.07 1.1-1.11 1.08-1.17 1.02-1.22 1-1.26.95-1.31.92-1.35.86-1.4.81-1.44.77-1.48.7-1.5.63-.06.03-.05.01-.09.04-.26.09-.06.01-.1.04-.03.01-.06.01-.05.03-.05.01-.04.01-.05.01.33.83.36.8.38.76.4.74.42.69.45.66.48.64.48.59.52.55.52.5.55.47.56.43.58.37.59.34.61.29.63.23.63.19.64.14.66.09.67.03.68-.02.68-.09.7-.14.7-.2.7-.25.71-.32.73-.39.71-.45.73-.51.72-.58.73-.66.72-.71.71-.8.35-.37.33-.33.32-.3.33-.27.3-.23.3-.22.29-.17.27-.15.27-.11.25-.09.23-.06.23-.03.2-.01.19.02.17.07.15.07.14.1.11.14.09.15.07.19.05.2.03.22v.26l-.03.28-.05.3-.07.31-.1.35-.13.37-.16.38-.19.4-.21.43-.25.45-.29.46-.36.55-.41.54-.43.52-.47.5-.49.49-.53.46-.55.45-.57.43-.6.41-.63.39-.65.38-.67.35-.69.33-.71.32-.73.28-.75.28-.76.25-.78.24-.8.21-.8.19-.82.17-.83.15-.83.13-.86.11-.86.09-.86.06-.86.05-.88.01h-.87l-.88-.01-.87-.05-.89-.06-.88-.09-1.24-.18-1.21-.22-1.17-.28-1.15-.35-1.12-.38-1.08-.47-1.04-.5-1.02-.56-.96-.62-.94-.67-.88-.72-.85-.77-.82-.82-.76-.86-.73-.93-.66-.96-.64-1.01-.57-1.07-.54-1.11-.47-1.15-.44-1.19-.38-1.24-.32-1.28-.28-1.32-.21-1.36-.16-1.41-.1-1.44-.04-1.48.01-1.52.08-1.55.14-1.59.2-1.63.26-1.66.4-1.79.52-1.75.65-1.71.77-1.65.86-1.6.97-1.55 1.07-1.49 1.15-1.41 1.24-1.37 1.3-1.29 1.36-1.21 1.41-1.14 1.48-1.06 1.51-.97 1.54-.89 1.57-.8 1.59-.71 1.6-.62 1.62-.51 1.6-.41 1.58-.3 1.58-.2 1.55-.09 1.51.04 1.48.15zm-7.12 6.92l-1.3 1.79-1.26 2.48-1.19 3.16-1.07 3.84-.93 4.5-.74 5.15-.06.78-.04.77-.02.77-.01.76v.75l.01.74.02.72.05.73.07.71.08.69 2.93-2.46 2.5-2.89 2.1-3.18 1.7-3.34 1.29-3.37.89-3.29.49-3.09.1-2.75-.29-2.29-.68-1.71-1-1.08-1.13-.35-1.23.38-1.28 1.08z" id="T"/><path d="M255.82 180.33c0-1.81 1.59-6.03 6.45-8.43-.3-3.41-2.47-4.31-4.07-3.01-5.97 4.61-13.22 21.85-11.33 34.3.1.3.1.6.1.9.3 1.11.6 2.21.99 3.31 1 2.81-8.75 5.91-14.22 1.7-1.89-1.4-2.88-12.43-2.88-31.58 0-15.75 3.48-29.69 5.37-30.19 11.44-3.11 18.09 2.3 14.51 12.93-2.08 6.03-3.97 12.14-5.06 18.56 4.36-11.93 11.63-22.97 17.49-25.88 10.44-5.21 18 1.7 15.81 13.95-.1.2-.19.7-.19.8-.1 1-1.01 4.11-.7 3.1-.93 2.94-1.59 4.06-2.39 5.32-2.85 4.48-6.96 7.82-10.64 9.03-4.28 1.3-9.24.1-9.24-4.81z" id="U"/><path d="M255.82 180.33c0-1.81 1.59-6.03 6.45-8.43-.3-3.41-2.47-4.31-4.07-3.01-5.97 4.61-13.22 21.85-11.33 34.3.1.3.1.6.1.9.3 1.11.6 2.21.99 3.31 1 2.81-8.75 5.91-14.22 1.7-1.89-1.4-2.88-12.43-2.88-31.58 0-15.75 3.48-29.69 5.37-30.19 11.44-3.11 18.09 2.3 14.51 12.93-2.08 6.03-3.97 12.14-5.06 18.56 4.36-11.93 11.63-22.97 17.49-25.88 10.44-5.21 18 1.7 15.81 13.95-.1.2-.19.7-.19.8-.1 1-1.01 4.11-.7 3.1-.93 2.94-1.59 4.06-2.39 5.32-2.85 4.48-6.96 7.82-10.64 9.03-4.28 1.3-9.24.1-9.24-4.81z" id="V"/><path d="M346.7 95.96l1.1.19 1.1.27 1.09.35 1.17.48 1.1.54 1.03.61.96.68.89.73.81.8.74.87.66.9.58.96.51 1 .43 1.05.33 1.1.25 1.14.18 1.16.09 1.2v1.24l-.1 1.26-.18 1.28-.27 1.31-.38 1.33-.46 1.33-.56 1.37-.67 1.36-.76 1.38-.86 1.37-.96 1.39-1.08 1.37-1.16 1.38-1.29 1.36-1.39 1.37-1.5 1.35-1.61 1.32-1.73 1.32-1.84 1.28-1.95 1.28-2.07 1.24-2.19 1.21-2.31 1.17-2.44 1.14-2.55 1.1-.07.32-.05.31-.12.62-.05.32-.06.32-.07.31-.05.33-.06.31-.1.65-.06.33-.1.65-.06.32-.05.34-.05.32-.35 2.37-.05.35-.05.34-.04.35-.05.33-.05.35-.04.35-.05.35-.04.35-.05.35-.03.37-.04.35-.05.35-.08.72-.03.35-.04.37-.14 1.35-.12 1.32-.23 2.65-.1 1.3-.09 1.3-.15 2.55-.06 1.27-.05 1.23-.04 1.24-.03 1.22-.03 1.2-.01 1.18-.01 1.18v1.15l.01 1.14.01 1.11.03 1.1.03 1.08.04 1.06.04 1.04.06 1.01.06.99.07.97.07.95.09.92.09.9.1.87.1.85.11.81.11.79.11.78.14.72.13.72.13.67.15.65.15.61.17.58.15.55.11.29.11.3.13.28.15.3.15.29.16.3.17.29.19.3.2.28.22.28.21.28.47.52.24.25.26.24.27.23.26.21.27.2.29.19.3.17.29.15.31.14.3.11.31.09.33.07.32.07.33.02h.34l.33-.01.34-.05.34-.08.35-.1.34-.13.35-.17.35-.2.35-.22.35-.26.35-.3.35-.34.35-.38.39-.41.37-.37.39-.35.37-.32.38-.27.37-.25.37-.23.36-.19.35-.16.35-.12.34-.12.31-.07.31-.04.3-.02.28.01.26.02.25.07.23.08.21.1.19.14.16.15.15.18.11.2.1.22.06.24.04.26v.29l-.01.3-.06.33-.09.33-.13.37-.15.37-.2.39-.22.41-.28.43-.31.43-.35.47-.4.46-.44.49-.49.5-.31.3-.67.6-.37.28-.37.29-.38.28-.4.27-.4.27-.41.26-.42.25-.44.25-.45.24-.45.22-.46.23-.96.42-.48.19-.5.2-.5.17-.52.18-.52.16-1.05.3-1.08.25-1.1.23-.55.08-1.12.15-.58.07-.56.03-.58.04-.57.03-.58.01h-.57l-.59-.01-.57-.03-.59-.05-.58-.05-.82-.12-.39-.08-.78-.2-.37-.11-.36-.11-.37-.14-.35-.14-.33-.15-.34-.16-.33-.18-.32-.18-.31-.19-.32-.2-.3-.21-.28-.22-.29-.23-.55-.48-.53-.52-.25-.28-.23-.29-.25-.28-.23-.31-.45-.62-.21-.33-.22-.33-.2-.34-.2-.35-.18-.35-.19-.38-.18-.36-.17-.39-.16-.38-.33-.8-.15-.42-.06.13-.05.12-.13.23-.06.12-.44.79-.07.11-.06.12-.07.1-.06.11-.07.11-.07.1-.07.1-.06.11-.08.1-.06.1-.15.2-.06.1-.15.2-.08.09-.15.2-.15.18-.07.1-.15.17-.09.09-.15.17-.09.08-.07.09-.58.57-.29.28-.3.27-.3.27-.6.5-.31.25-.3.22-.33.24-.31.21-.65.43-.32.2-.33.18-.67.35-.35.18-.34.15-.35.15-.36.14-.35.13-.37.13-.37.11-.36.1-.38.1-.39.09-.37.07-.39.08-.4.06-.39.05-.4.04-.41.02-.4.03-.41.01h-.43l-.85-.02-.87-.08-.88-.11-.86-.16-.84-.22-.81-.23-.8-.29-.79-.33-.75-.37-.74-.4-.71-.45-.7-.48-.66-.52-.65-.55-.62-.6-.6-.63-.56-.66-.55-.7-.51-.74-.49-.76-.46-.8-.44-.84-.41-.86-.38-.89-.35-.93-.31-.96-.3-.99-.25-1.01-.23-1.04-.2-1.07-.16-1.09-.12-1.13-.1-1.15-.07-1.17-.02-1.2.01-1.23.04-1.25.07-1.27.12-1.29.16-1.33.19-1.33.22-1.35.29-1.43.32-1.38.39-1.32.41-1.29.48-1.24.5-1.18.54-1.16.58-1.1.62-1.05.63-1.01.69-.96.7-.91.74-.88.75-.83.79-.77.8-.74.81-.69.84-.63.85-.6.88-.55.87-.52.89-.45.9-.42.9-.36.9-.33.91-.27.9-.24.91-.18.91-.15.88-.08.9-.05h.88l.86.03.86.09.84.14.83.17.8.23.79.27.76.32.72.36.03-.19.01-.17.01-.19.02-.18.01-.18.02-.18.02-.17.01-.19.01-.18.01-.19.03-.17.01-.19.01-.17.02-.19.01-.18.02-.18.02-.18.02-.37.01-.18.03-.19.01-.17.03-.38.01-.17.02-.19.02-.19.01-.17.02-.38.03-.18.01-.19.01-.18.04-.56.03-.19.03-.56.02-.04v-.03l.01-.04v-.04l.01-.04v-.03l.01-.04v-.04l.02-.04v-.07l.01-.04v-.07l.01-.04v-.08l.01-.03.02-.15v-.08l.01-.04v-.07l.01-.04v-.07l.01-.04v-.08l.02-.03v-.04l.01-.04v-.04l.01-.03v-.04l.01-.04-.21.04-.21.05-.2.05-.21.04-.22.05-.21.03-.42.1-.23.04-.21.05-.21.04-.22.05-.22.04-.21.05-.23.03-.21.05-.23.05-.22.04-.22.04-.22.05-.23.04-.21.05-.22.03-.23.05-.45.08-.22.05-.45.07-.23.05-.24.04-.45.08-.22.05-.24.03-.45.08-.24.04-.22.03-.24.04-3.1.46-2.89.3-2.69.17-2.49.02-2.28-.11-2.12-.24-1.92-.36-1.75-.46-1.59-.58-1.43-.67-1.26-.78-1.1-.85-.98-.94-.82-1.02-.69-1.08-.56-1.15-.44-1.2-.32-1.25-.2-1.29-.12-1.32v-1.37l.09-1.38.18-1.41.26-1.41.34-1.42.4-1.42.47-1.41.53-1.39.58-1.37.64-1.35.68-1.33.7-1.27.75-1.23.76-1.18.78-1.12.8-1.05.8-.99.81-.9.8-.82.79-.73.86-.74.84-.67.79-.62.75-.55.71-.5.67-.45.65-.38.6-.35.58-.29.54-.25.5-.2.46-.16.44-.13.4-.09.36-.05.34-.01.31.01.28.05.25.08.21.09.19.12.15.15.13.16.1.18.08.2.05.21.02.21v.24l-.02.24-.05.24-.08.25-.1.23-.12.25-.15.24-.16.24-.19.24-.2.21-.24.21-.24.2-.27.18-.48.36-.47.41-.45.5-.44.55-.41.62-.39.66-.36.71-.35.76-.32.8-.28.84-.25.88-.23.9-.19.92-.15.95-.11.98-.07.97-.04.99.01.99.05.99.1 1 .14.97.2.97.24.96.3.92.35.92.41.87.46.85.53.8.58.78.66.72.71.68.79.61.83.56.93.52.99.42 1.06.38 1.12.28 1.22.22 1.29.13 1.37.04h.91l.24-.01h.45l.23-.01h.22l.23-.02h.22l.45-.02h.23l.21-.01.45-.03.21-.01.45-.03.22-.01.22-.01.21-.01.23-.02.21-.02.23-.01.21-.02.22-.02.22-.01.21-.03.22-.01.22-.03.21-.01.22-.02.22-.02.21-.02.22-.03.22-.01.21-.02.22-.03.45-2.42.52-2.35.55-2.29.58-2.24.63-2.16.66-2.1.7-2.03.74-1.96.76-1.9.8-1.84.84-1.77.85-1.7.89-1.63.91-1.57.94-1.49.96-1.42.99-1.36 1-1.29 1.03-1.21 1.03-1.14 1.05-1.08 1.08-1 1.09-.94 1.09-.85 1.11-.78 1.11-.72 1.11-.63 1.14-.58 1.13-.49 1.14-.41 1.13-.34 1.14-.27 1.14-.19 1.12-.11 1.14-.04 1.12.04 1.12.12zm-41.96 67.11l-1.18.88-1.12 1.15-1.05 1.4-1 1.64-.92 1.86-.82 2.06-.74 2.24-.63 2.4-.5 2.55-.38 2.68-.24 3.09-.01 2.86.2 2.64.38 2.39.54 2.14.68 1.86.77 1.6.86 1.31.93 1.02.95.71.98.4.95.09.91-.27.85-.6.6-.71.55-.87.51-1.03.48-1.13.42-1.22.4-1.26.35-1.3.33-1.3.27-1.28.24-1.23.21-1.13.17-1.04.13-.9.1-.74-.07-1.36-.06-1.39-.07-1.41-.05-1.43-.03-1.45-.03-1.47-.01-1.49-.01-1.5-.02-1.52v-1.52l.02-1.54.01-1.55.01-1.56.03-1.57v-.38l.01-.19v-.2l.05-.75v-.19l.01-.19.01-.17v-.19l.02-.17v-.18l-1.28-.4-1.26-.05-1.25.27-1.2.59zm41.95-54.65l-2.14 1.42-2.26 2.14-2.33 2.88-2.31 3.66-2.27 4.49-2.12 5.34-1.96 6.24 4.38-2.35 3.88-2.58 3.39-2.71 2.9-2.78 2.41-2.77 1.93-2.71 1.46-2.53.99-2.32.54-2.01.07-1.64-.37-1.17-1.08-1.03-1.42-.46-1.73.12-1.96.77z" id="W"/><path d="M346.7 95.96l1.1.19 1.1.27 1.09.35 1.17.48 1.1.54 1.03.61.96.68.89.73.81.8.74.87.66.9.58.96.51 1 .43 1.05.33 1.1.25 1.14.18 1.16.09 1.2v1.24l-.1 1.26-.18 1.28-.27 1.31-.38 1.33-.46 1.33-.56 1.37-.67 1.36-.76 1.38-.86 1.37-.96 1.39-1.08 1.37-1.16 1.38-1.29 1.36-1.39 1.37-1.5 1.35-1.61 1.32-1.73 1.32-1.84 1.28-1.95 1.28-2.07 1.24-2.19 1.21-2.31 1.17-2.44 1.14-2.55 1.1-.07.32-.05.31-.12.62-.05.32-.06.32-.07.31-.05.33-.06.31-.1.65-.06.33-.1.65-.06.32-.05.34-.05.32-.35 2.37-.05.35-.05.34-.04.35-.05.33-.05.35-.04.35-.05.35-.04.35-.05.35-.03.37-.04.35-.05.35-.08.72-.03.35-.04.37-.14 1.35-.12 1.32-.23 2.65-.1 1.3-.09 1.3-.15 2.55-.06 1.27-.05 1.23-.04 1.24-.03 1.22-.03 1.2-.01 1.18-.01 1.18v1.15l.01 1.14.01 1.11.03 1.1.03 1.08.04 1.06.04 1.04.06 1.01.06.99.07.97.07.95.09.92.09.9.1.87.1.85.11.81.11.79.11.78.14.72.13.72.13.67.15.65.15.61.17.58.15.55.11.29.11.3.13.28.15.3.15.29.16.3.17.29.19.3.2.28.22.28.21.28.47.52.24.25.26.24.27.23.26.21.27.2.29.19.3.17.29.15.31.14.3.11.31.09.33.07.32.07.33.02h.34l.33-.01.34-.05.34-.08.35-.1.34-.13.35-.17.35-.2.35-.22.35-.26.35-.3.35-.34.35-.38.39-.41.37-.37.39-.35.37-.32.38-.27.37-.25.37-.23.36-.19.35-.16.35-.12.34-.12.31-.07.31-.04.3-.02.28.01.26.02.25.07.23.08.21.1.19.14.16.15.15.18.11.2.1.22.06.24.04.26v.29l-.01.3-.06.33-.09.33-.13.37-.15.37-.2.39-.22.41-.28.43-.31.43-.35.47-.4.46-.44.49-.49.5-.31.3-.67.6-.37.28-.37.29-.38.28-.4.27-.4.27-.41.26-.42.25-.44.25-.45.24-.45.22-.46.23-.96.42-.48.19-.5.2-.5.17-.52.18-.52.16-1.05.3-1.08.25-1.1.23-.55.08-1.12.15-.58.07-.56.03-.58.04-.57.03-.58.01h-.57l-.59-.01-.57-.03-.59-.05-.58-.05-.82-.12-.39-.08-.78-.2-.37-.11-.36-.11-.37-.14-.35-.14-.33-.15-.34-.16-.33-.18-.32-.18-.31-.19-.32-.2-.3-.21-.28-.22-.29-.23-.55-.48-.53-.52-.25-.28-.23-.29-.25-.28-.23-.31-.45-.62-.21-.33-.22-.33-.2-.34-.2-.35-.18-.35-.19-.38-.18-.36-.17-.39-.16-.38-.33-.8-.15-.42-.06.13-.05.12-.13.23-.06.12-.44.79-.07.11-.06.12-.07.1-.06.11-.07.11-.07.1-.07.1-.06.11-.08.1-.06.1-.15.2-.06.1-.15.2-.08.09-.15.2-.15.18-.07.1-.15.17-.09.09-.15.17-.09.08-.07.09-.58.57-.29.28-.3.27-.3.27-.6.5-.31.25-.3.22-.33.24-.31.21-.65.43-.32.2-.33.18-.67.35-.35.18-.34.15-.35.15-.36.14-.35.13-.37.13-.37.11-.36.1-.38.1-.39.09-.37.07-.39.08-.4.06-.39.05-.4.04-.41.02-.4.03-.41.01h-.43l-.85-.02-.87-.08-.88-.11-.86-.16-.84-.22-.81-.23-.8-.29-.79-.33-.75-.37-.74-.4-.71-.45-.7-.48-.66-.52-.65-.55-.62-.6-.6-.63-.56-.66-.55-.7-.51-.74-.49-.76-.46-.8-.44-.84-.41-.86-.38-.89-.35-.93-.31-.96-.3-.99-.25-1.01-.23-1.04-.2-1.07-.16-1.09-.12-1.13-.1-1.15-.07-1.17-.02-1.2.01-1.23.04-1.25.07-1.27.12-1.29.16-1.33.19-1.33.22-1.35.29-1.43.32-1.38.39-1.32.41-1.29.48-1.24.5-1.18.54-1.16.58-1.1.62-1.05.63-1.01.69-.96.7-.91.74-.88.75-.83.79-.77.8-.74.81-.69.84-.63.85-.6.88-.55.87-.52.89-.45.9-.42.9-.36.9-.33.91-.27.9-.24.91-.18.91-.15.88-.08.9-.05h.88l.86.03.86.09.84.14.83.17.8.23.79.27.76.32.72.36.03-.19.01-.17.01-.19.02-.18.01-.18.02-.18.02-.17.01-.19.01-.18.01-.19.03-.17.01-.19.01-.17.02-.19.01-.18.02-.18.02-.18.02-.37.01-.18.03-.19.01-.17.03-.38.01-.17.02-.19.02-.19.01-.17.02-.38.03-.18.01-.19.01-.18.04-.56.03-.19.03-.56.02-.04v-.03l.01-.04v-.04l.01-.04v-.03l.01-.04v-.04l.02-.04v-.07l.01-.04v-.07l.01-.04v-.08l.01-.03.02-.15v-.08l.01-.04v-.07l.01-.04v-.07l.01-.04v-.08l.02-.03v-.04l.01-.04v-.04l.01-.03v-.04l.01-.04-.21.04-.21.05-.2.05-.21.04-.22.05-.21.03-.42.1-.23.04-.21.05-.21.04-.22.05-.22.04-.21.05-.23.03-.21.05-.23.05-.22.04-.22.04-.22.05-.23.04-.21.05-.22.03-.23.05-.45.08-.22.05-.45.07-.23.05-.24.04-.45.08-.22.05-.24.03-.45.08-.24.04-.22.03-.24.04-3.1.46-2.89.3-2.69.17-2.49.02-2.28-.11-2.12-.24-1.92-.36-1.75-.46-1.59-.58-1.43-.67-1.26-.78-1.1-.85-.98-.94-.82-1.02-.69-1.08-.56-1.15-.44-1.2-.32-1.25-.2-1.29-.12-1.32v-1.37l.09-1.38.18-1.41.26-1.41.34-1.42.4-1.42.47-1.41.53-1.39.58-1.37.64-1.35.68-1.33.7-1.27.75-1.23.76-1.18.78-1.12.8-1.05.8-.99.81-.9.8-.82.79-.73.86-.74.84-.67.79-.62.75-.55.71-.5.67-.45.65-.38.6-.35.58-.29.54-.25.5-.2.46-.16.44-.13.4-.09.36-.05.34-.01.31.01.28.05.25.08.21.09.19.12.15.15.13.16.1.18.08.2.05.21.02.21v.24l-.02.24-.05.24-.08.25-.1.23-.12.25-.15.24-.16.24-.19.24-.2.21-.24.21-.24.2-.27.18-.48.36-.47.41-.45.5-.44.55-.41.62-.39.66-.36.71-.35.76-.32.8-.28.84-.25.88-.23.9-.19.92-.15.95-.11.98-.07.97-.04.99.01.99.05.99.1 1 .14.97.2.97.24.96.3.92.35.92.41.87.46.85.53.8.58.78.66.72.71.68.79.61.83.56.93.52.99.42 1.06.38 1.12.28 1.22.22 1.29.13 1.37.04h.91l.24-.01h.45l.23-.01h.22l.23-.02h.22l.45-.02h.23l.21-.01.45-.03.21-.01.45-.03.22-.01.22-.01.21-.01.23-.02.21-.02.23-.01.21-.02.22-.02.22-.01.21-.03.22-.01.22-.03.21-.01.22-.02.22-.02.21-.02.22-.03.22-.01.21-.02.22-.03.45-2.42.52-2.35.55-2.29.58-2.24.63-2.16.66-2.1.7-2.03.74-1.96.76-1.9.8-1.84.84-1.77.85-1.7.89-1.63.91-1.57.94-1.49.96-1.42.99-1.36 1-1.29 1.03-1.21 1.03-1.14 1.05-1.08 1.08-1 1.09-.94 1.09-.85 1.11-.78 1.11-.72 1.11-.63 1.14-.58 1.13-.49 1.14-.41 1.13-.34 1.14-.27 1.14-.19 1.12-.11 1.14-.04 1.12.04 1.12.12zm-41.96 67.11l-1.18.88-1.12 1.15-1.05 1.4-1 1.64-.92 1.86-.82 2.06-.74 2.24-.63 2.4-.5 2.55-.38 2.68-.24 3.09-.01 2.86.2 2.64.38 2.39.54 2.14.68 1.86.77 1.6.86 1.31.93 1.02.95.71.98.4.95.09.91-.27.85-.6.6-.71.55-.87.51-1.03.48-1.13.42-1.22.4-1.26.35-1.3.33-1.3.27-1.28.24-1.23.21-1.13.17-1.04.13-.9.1-.74-.07-1.36-.06-1.39-.07-1.41-.05-1.43-.03-1.45-.03-1.47-.01-1.49-.01-1.5-.02-1.52v-1.52l.02-1.54.01-1.55.01-1.56.03-1.57v-.38l.01-.19v-.2l.05-.75v-.19l.01-.19.01-.17v-.19l.02-.17v-.18l-1.28-.4-1.26-.05-1.25.27-1.2.59zm41.95-54.65l-2.14 1.42-2.26 2.14-2.33 2.88-2.31 3.66-2.27 4.49-2.12 5.34-1.96 6.24 4.38-2.35 3.88-2.58 3.39-2.71 2.9-2.78 2.41-2.77 1.93-2.71 1.46-2.53.99-2.32.54-2.01.07-1.64-.37-1.17-1.08-1.03-1.42-.46-1.73.12-1.96.77z" id="X"/></defs><use xlink:href="#a" fill="#f23939"/><use xlink:href="#a" fill-opacity="0" stroke="#000" stroke-opacity="0"/><use xlink:href="#b" fill-opacity="0"/><use xlink:href="#b" fill-opacity="0" stroke="#000" stroke-opacity="0"/><use xlink:href="#c" fill-opacity="0"/><use xlink:href="#c" fill-opacity="0" stroke="#000" stroke-opacity="0"/><use xlink:href="#d" fill-opacity="0"/><use xlink:href="#d" fill-opacity="0" stroke="#000" stroke-width="0"/><use xlink:href="#e" fill="#f23939"/><use xlink:href="#e" fill-opacity="0" stroke="#000" stroke-opacity="0"/><use xlink:href="#f" fill-opacity="0"/><use xlink:href="#f" fill-opacity="0" stroke="#000" stroke-opacity="0"/><use xlink:href="#g" fill="#08c27e"/><use xlink:href="#g" fill-opacity="0" stroke="#000" stroke-opacity="0"/><use xlink:href="#h" fill-opacity="0"/><use xlink:href="#h" fill-opacity="0" stroke="#000" stroke-opacity="0"/><use xlink:href="#i" fill="#08c27e"/><use xlink:href="#i" fill-opacity="0" stroke="#000" stroke-opacity="0"/><use xlink:href="#j" fill-opacity="0"/><use xlink:href="#j" fill-opacity="0" stroke="#000" stroke-opacity="0"/><use xlink:href="#k" fill="#087cc2"/><use xlink:href="#k" fill-opacity="0" stroke="#000" stroke-opacity="0"/><use xlink:href="#l" fill-opacity="0"/><use xlink:href="#l" fill-opacity="0" stroke="#000" stroke-opacity="0"/><use xlink:href="#m" fill="#087cc2"/><use xlink:href="#m" fill-opacity="0" stroke="#000" stroke-opacity="0"/><use xlink:href="#n" fill-opacity="0"/><use xlink:href="#n" fill-opacity="0" stroke="#000" stroke-opacity="0"/><use xlink:href="#o" fill="#e7ca00"/><use xlink:href="#o" fill-opacity="0" stroke="#000" stroke-opacity="0"/><use xlink:href="#p" fill-opacity="0"/><use xlink:href="#p" fill-opacity="0" stroke="#000" stroke-opacity="0"/><use xlink:href="#q" fill="#e7ca00"/><use xlink:href="#q" fill-opacity="0" stroke="#000" stroke-opacity="0"/><use xlink:href="#r" fill-opacity="0"/><use xlink:href="#r" fill-opacity="0" stroke="#000" stroke-opacity="0"/><use xlink:href="#s" fill="#e7ca00"/><use xlink:href="#s" fill-opacity="0" stroke="#000" stroke-opacity="0"/><use xlink:href="#t" fill-opacity="0"/><use xlink:href="#t" fill-opacity="0" stroke="#000" stroke-opacity="0"/><use xlink:href="#u" fill="#08c27e"/><use xlink:href="#u" fill-opacity="0" stroke="#000" stroke-opacity="0"/><use xlink:href="#v" fill-opacity="0"/><use xlink:href="#v" fill-opacity="0" stroke="#000" stroke-opacity="0"/><use xlink:href="#w" fill="#08c27e"/><use xlink:href="#w" fill-opacity="0" stroke="#000" stroke-opacity="0"/><use xlink:href="#x" fill-opacity="0"/><use xlink:href="#x" fill-opacity="0" stroke="#000" stroke-opacity="0"/><use xlink:href="#y" fill="#08c27e"/><use xlink:href="#y" fill-opacity="0" stroke="#000" stroke-opacity="0"/><g><use xlink:href="#z" fill-opacity="0"/><use xlink:href="#z" fill-opacity="0" stroke="#000" stroke-opacity="0"/></g><g><use xlink:href="#A" fill="#08c27e"/><use xlink:href="#A" fill-opacity="0" stroke="#000" stroke-opacity="0"/></g><g><use xlink:href="#B" fill-opacity="0"/><use xlink:href="#B" fill-opacity="0" stroke="#000" stroke-opacity="0"/></g><g><use xlink:href="#C" fill="#f23939"/><use xlink:href="#C" fill-opacity="0" stroke="#000" stroke-opacity="0"/></g><g><use xlink:href="#D" fill-opacity="0"/><use xlink:href="#D" fill-opacity="0" stroke="#000" stroke-opacity="0"/></g><g><use xlink:href="#E" fill="#f23939"/><use xlink:href="#E" fill-opacity="0" stroke="#000" stroke-opacity="0"/></g><g><use xlink:href="#F" fill-opacity="0"/><use xlink:href="#F" fill-opacity="0" stroke="#000" stroke-opacity="0"/></g><g><use xlink:href="#G" fill="#e7ca00"/><use xlink:href="#G" fill-opacity="0" stroke="#000" stroke-opacity="0"/></g><g><use xlink:href="#H" fill-opacity="0"/><use xlink:href="#H" fill-opacity="0" stroke="#000" stroke-opacity="0"/></g><g><use xlink:href="#I"/><use xlink:href="#I" fill-opacity="0" stroke="#000" stroke-opacity="0"/></g><g><use xlink:href="#J" fill-opacity="0"/><use xlink:href="#J" fill-opacity="0" stroke="#000" stroke-opacity="0"/></g><g><use xlink:href="#K"/><use xlink:href="#K" fill-opacity="0" stroke="#000" stroke-opacity="0"/></g><g><use xlink:href="#L" fill-opacity="0"/><use xlink:href="#L" fill-opacity="0" stroke="#000" stroke-opacity="0"/></g><g><use xlink:href="#M"/><use xlink:href="#M" fill-opacity="0" stroke="#000" stroke-opacity="0"/></g><g><use xlink:href="#N" fill-opacity="0"/><use xlink:href="#N" fill-opacity="0" stroke="#000" stroke-opacity="0"/></g><g><use xlink:href="#O"/><use xlink:href="#O" fill-opacity="0" stroke="#000" stroke-opacity="0"/></g><g><use xlink:href="#P" fill-opacity="0"/><use xlink:href="#P" fill-opacity="0" stroke="#000" stroke-opacity="0"/></g><g><use xlink:href="#Q"/><use xlink:href="#Q" fill-opacity="0" stroke="#000" stroke-opacity="0"/></g><g><use xlink:href="#R" fill-opacity="0"/><use xlink:href="#R" fill-opacity="0" stroke="#000" stroke-opacity="0"/></g><g><use xlink:href="#S"/><use xlink:href="#S" fill-opacity="0" stroke="#000" stroke-opacity="0"/></g><g><use xlink:href="#T" fill-opacity="0"/><use xlink:href="#T" fill-opacity="0" stroke="#000" stroke-opacity="0"/></g><g><use xlink:href="#U"/><use xlink:href="#U" fill-opacity="0" stroke="#000" stroke-opacity="0"/></g><g><use xlink:href="#V" fill-opacity="0"/><use xlink:href="#V" fill-opacity="0" stroke="#000" stroke-opacity="0"/></g><g><use xlink:href="#W"/><use xlink:href="#W" fill-opacity="0" stroke="#000" stroke-opacity="0"/></g><g><use xlink:href="#X" fill-opacity="0"/><use xlink:href="#X" fill-opacity="0" stroke="#000" stroke-opacity="0"/></g></svg>