<svg xmlns="http://www.w3.org/2000/svg" xmlns:xlink="http://www.w3.org/1999/xlink"><symbol id="icon-fb" viewBox="0 0 100 196.22"><path d="M63.7 196.18C50.38 196.18 37.11 196.14 23.79 196.22C21.92 196.22 21.41 195.71 21.41 193.85C21.45 162.85 21.45 131.81 21.45 100.82C21.45 100 21.45 99.18 21.45 98.13C14.21 98.13 7.16 98.13 0 98.13C0 87.07 0 76.21 0 65.03C0.74 65.03 1.44 65.03 2.1 65.03C7.94 65.03 13.78 64.99 19.62 65.07C21.1 65.07 21.49 64.64 21.49 63.2C21.41 54.52 21.41 45.79 21.49 37.11C21.53 31.04 22.5 25.12 25.31 19.63C29.32 11.88 35.67 6.85 43.69 3.74C50.23 1.17 57.12 0.23 64.05 0.12C75.35 -0.04 86.64 0.04 97.93 0C98.98 0 99.84 -0.04 99.84 1.44C99.8 12.15 99.8 22.86 99.8 33.57C99.8 33.68 99.76 33.8 99.61 34.31C98.94 34.31 98.2 34.31 97.46 34.31C90.46 34.31 83.45 34.27 76.44 34.31C72.39 34.31 69.12 35.94 67.05 39.49C66.43 40.54 66.04 41.9 66.04 43.15C65.92 49.77 66.04 56.39 65.96 63.01C65.96 64.56 66.43 64.99 67.95 64.99C77.68 64.91 87.42 64.95 97.15 64.95C97.93 64.95 98.67 64.95 100 64.95C98.63 76.09 97.31 86.99 95.95 98.01C85.82 98.01 75.97 98.01 65.92 98.01C65.92 130.76 65.92 163.32 65.92 196.06C64.95 196.1 64.33 196.18 63.7 196.18Z" id="cQ0eVpmDd"/></symbol><symbol id="icon-gh-2" viewBox="0 0 100 125.06"><path d="M100 42.68C99.97 27.2 92.56 21.72 91.13 19.15C93.23 7.42 90.79 2.09 89.65 0.26C85.45 -1.23 75.04 4.11 69.35 7.86C60.08 5.15 40.48 5.41 33.13 8.57C19.57 -1.14 12.4 0.34 12.4 0.34C12.4 0.34 7.76 8.65 11.17 20.81C6.71 26.5 3.39 30.52 3.39 41.18C3.39 43.74 3.54 46.15 3.81 48.47C7.66 68.67 23.66 77.39 39.39 78.89C37.02 80.69 34.18 84.09 33.79 88.04C30.81 89.96 24.83 90.59 20.18 89.13C13.67 87.07 11.17 74.17 1.41 76.01C-0.7 76.4 -0.28 77.8 1.55 78.98C4.52 80.91 7.32 83.31 9.48 88.44C11.14 92.38 14.63 99.41 25.65 99.41C30.02 99.41 33.09 98.89 33.09 98.89C33.09 98.89 33.17 108.93 33.17 112.84C33.17 117.34 27.09 118.61 27.09 120.77C27.09 121.63 29.11 121.71 30.72 121.71C33.92 121.71 40.57 119.05 40.57 114.37C40.57 110.65 40.63 98.15 40.63 95.96C40.63 91.17 43.19 89.65 43.19 89.65C43.19 89.65 43.5 115.19 42.57 118.61C41.48 122.64 39.5 122.06 39.5 123.86C39.5 126.53 47.5 124.51 50.15 118.66C52.2 114.09 51.28 89.04 51.28 89.04C51.49 89.04 53.2 89 53.42 89C53.42 89 53.44 100.47 53.37 105.71C53.29 111.13 52.73 117.99 55.96 121.23C58.07 123.36 64.55 127.1 64.55 123.68C64.55 121.7 60.01 120.07 60.01 114.71C60.01 112.24 60.01 92.48 60.01 90.01C62.77 90.01 63.34 98.13 63.34 98.13C63.44 99.63 64.24 111.7 64.33 113.21C64.33 113.21 63.67 118.71 70.28 121.01C72.61 121.83 77.6 122.05 77.84 120.68C78.07 119.3 71.83 117.27 71.77 113.01C71.74 110.42 71.89 108.9 71.89 97.61C71.89 86.33 70.37 82.16 65.09 78.83C80.4 77.26 96.31 70.42 99.17 52.44C99.63 49.51 99.92 46.29 100 42.68Z" id="akamPhtPn"/></symbol><symbol id="icon-mail" viewBox="0 0 96 96"><path d="M80,12H16C9.373,12,4,17.373,4,24v48c0,6.627,5.373,12,12,12h64c6.627,0,12-5.373,12-12V24C92,17.373,86.627,12,80,12z   M80,20c0.459,0,0.893,0.093,1.303,0.235L48,46.877L14.697,20.235C15.108,20.093,15.541,20,16,20H80z M80,76H16c-2.21,0-4-1.79-4-4  V28.323l33.501,26.8C46.231,55.708,47.116,56,48,56s1.769-0.292,2.499-0.877L84,28.323V72C84,74.21,82.21,76,80,76z"/></symbol><symbol id="icon-tw-2" viewBox="0 0 100 81.23"><path d="M88.22 12.84C92.46 10.3 95.7 6.28 97.24 1.5C93.26 3.85 88.88 5.55 84.2 6.48C80.46 2.49 75.14 0 69.23 0C57.9 0 48.72 9.18 48.72 20.51C48.72 22.11 48.9 23.68 49.25 25.18C32.2 24.33 17.09 16.16 6.97 3.75C5.2 6.77 4.19 10.3 4.19 14.06C4.19 21.18 7.82 27.46 13.32 31.13C9.96 31.02 6.79 30.09 4.03 28.56C4.03 28.58 4.03 28.79 4.03 28.81C4.03 38.75 11.1 47.04 20.48 48.93C18.76 49.39 16.95 49.65 15.07 49.65C13.75 49.65 12.47 49.52 11.21 49.27C13.82 57.42 21.4 63.35 30.37 63.51C23.35 69.01 14.5 72.28 4.89 72.28C3.24 72.28 1.61 72.18 0 72C9.08 77.83 19.86 81.23 31.45 81.23C69.18 81.23 89.81 49.97 89.81 22.86C89.8 22.6 89.75 20.47 89.74 20.21C93.77 17.33 97.26 13.72 100 9.61C96.32 11.24 92.37 12.35 88.22 12.84Z" id="k4iC3VIX7"/></symbol><symbol id="logo-2" viewBox="0 0 32 40"><path d="M0 39.3V23.67h7.81V39.3H0zm23.44 0L0 .24h7.81L23.44 26.8V.24L31.25 0v39.3h-7.81z" id="a"/></symbol><symbol id="logo-nick-naumenko" viewBox="0 0 91.127 46.411">
  <g stroke-width=".529">
    <path d="M14.949 19.315h-3.72L3.984 7.433v11.882H.265V1.257h3.72l7.256 11.906V1.257h3.708zM21.77 19.315h-3.596V5.895h3.596zM17.963 2.423q0-.807.533-1.327.546-.521 1.476-.521.918 0 1.463.52.546.521.546 1.328 0 .818-.558 1.339-.546.52-1.451.52t-1.464-.52q-.545-.52-.545-1.34zM30.315 16.673q.993 0 1.613-.546t.645-1.45h3.36q-.012 1.363-.743 2.504-.732 1.129-2.01 1.762-1.265.62-2.803.62-2.877 0-4.539-1.824-1.662-1.835-1.662-5.06v-.235q0-3.1 1.65-4.949 1.65-1.848 4.527-1.848 2.517 0 4.03 1.439 1.526 1.426 1.55 3.807h-3.36q-.025-1.041-.645-1.686-.62-.658-1.637-.658-1.253 0-1.898.918-.632.905-.632 2.952v.372q0 2.071.632 2.977.633.905 1.922.905zM42.854 13.932l-1.29 1.29v4.093H37.98V.265h3.584v10.554l.695-.893 3.435-4.03h4.304l-4.85 5.593 5.272 7.826h-4.118z"/>
    <path d="M9.66 45.992H7.885l-5.836-8.45v8.45H.265V34.754h1.784l5.836 8.46v-8.46H9.66zM19.094 43.3h-5.016l-1.061 2.692h-1.823l4.62-11.238h1.602l4.553 11.238h-1.814zm-4.437-1.456h3.868l-1.92-4.91zM31.943 34.754v7.524q0 1.756-1.206 2.817-1.206 1.051-3.222 1.051-2.025 0-3.212-1.012-1.186-1.023-1.215-2.779v-7.6h1.765v7.523q0 1.167.685 1.794.694.618 1.977.618 1.264 0 1.949-.608.694-.617.694-1.804v-7.524zM36.689 34.754l3.772 8.788 3.752-8.788h2.325v11.238h-1.775v-3.868l.183-5.142-3.84 9.01h-1.311l-3.83-8.971.184 5.103v3.868h-1.775V34.754zM56.145 40.918h-5.131v3.617h5.97v1.457H49.23V34.754h7.698v1.476h-5.913v3.222h5.131zM68.27 45.992h-1.774l-5.836-8.45v8.45h-1.785V34.754h1.785l5.836 8.46v-8.46h1.775zM74.155 40.986l-1.418 1.37v3.636h-1.785V34.754h1.785v5.354l1.254-1.39 3.83-3.964h2.19l-4.621 5.007 4.948 6.231h-2.17zM90.862 40.706q0 2.518-1.33 3.984-1.332 1.456-3.57 1.456-2.209 0-3.57-1.475-1.35-1.476-1.35-4.013v-.598q0-2.49 1.341-3.975 1.35-1.485 3.56-1.485 2.247 0 3.569 1.466 1.331 1.466 1.35 3.926zm-1.765-.666q0-1.91-.83-2.923-.83-1.012-2.324-1.012-1.447 0-2.296 1.032-.84 1.032-.84 2.932v.637q0 1.88.85 2.923.848 1.032 2.305 1.032 1.505 0 2.315-1.013.82-1.022.82-2.942z"/>
  </g>
</symbol></svg>